<svg width="20" height="21" viewBox="0 0 20 21" fill="none" xmlns="http://www.w3.org/2000/svg">
<g clip-path="url(#clip0_1_5723)">
<path d="M15.8789 16.1094C15.1328 14.2852 13.3398 13 11.25 13H8.75C6.66016 13 4.86719 14.2852 4.12109 16.1094C2.73047 14.6523 1.875 12.6758 1.875 10.5C1.875 6.01172 5.51172 2.375 10 2.375C14.4883 2.375 18.125 6.01172 18.125 10.5C18.125 12.6758 17.2695 14.6484 15.8789 16.1094ZM14.3125 17.3867C13.0625 18.1719 11.5859 18.625 10 18.625C8.41406 18.625 6.9375 18.1719 5.68359 17.3867C5.96875 15.9531 7.23438 14.875 8.75 14.875H11.25C12.7656 14.875 14.0312 15.9531 14.3164 17.3867H14.3125ZM10 20.5C12.6522 20.5 15.1957 19.4464 17.0711 17.5711C18.9464 15.6957 20 13.1522 20 10.5C20 7.84784 18.9464 5.3043 17.0711 3.42893C15.1957 1.55357 12.6522 0.5 10 0.5C7.34784 0.5 4.8043 1.55357 2.92893 3.42893C1.05357 5.3043 0 7.84784 0 10.5C0 13.1522 1.05357 15.6957 2.92893 17.5711C4.8043 19.4464 7.34784 20.5 10 20.5ZM10 9.875C9.5856 9.875 9.18817 9.71038 8.89515 9.41735C8.60212 9.12433 8.4375 8.7269 8.4375 8.3125C8.4375 7.8981 8.60212 7.50067 8.89515 7.20765C9.18817 6.91462 9.5856 6.75 10 6.75C10.4144 6.75 10.8118 6.91462 11.1049 7.20765C11.3979 7.50067 11.5625 7.8981 11.5625 8.3125C11.5625 8.7269 11.3979 9.12433 11.1049 9.41735C10.8118 9.71038 10.4144 9.875 10 9.875ZM6.5625 8.3125C6.5625 9.22418 6.92466 10.0985 7.56932 10.7432C8.21398 11.3878 9.08832 11.75 10 11.75C10.9117 11.75 11.786 11.3878 12.4307 10.7432C13.0753 10.0985 13.4375 9.22418 13.4375 8.3125C13.4375 7.40082 13.0753 6.52648 12.4307 5.88182C11.786 5.23716 10.9117 4.875 10 4.875C9.08832 4.875 8.21398 5.23716 7.56932 5.88182C6.92466 6.52648 6.5625 7.40082 6.5625 8.3125Z" fill="#1D1D1D"/>
</g>
<defs>
<clipPath id="clip0_1_5723">
<rect width="20" height="20" fill="white" transform="translate(0 0.5)"/>
</clipPath>
</defs>
</svg>
