<svg width="44" height="36" viewBox="0 0 44 36" fill="none" xmlns="http://www.w3.org/2000/svg">
<g clip-path="url(#clip0_1_2159)">
<path d="M13.1159 23.6237C19.0605 15.8477 38.5253 21.8136 29.1872 32.1872C28.262 33.2148 24.6428 35.8454 23.3288 35.3883C22.6725 35.1593 22.8523 33.7466 22.8396 33.1872C17.9834 34.0419 8.60499 29.5248 13.1159 23.6237ZM18.5046 28.8893C20.2498 27.9695 19.5837 24.2653 17.4734 24.6754C14.9645 25.1623 15.9333 30.2438 18.5046 28.8893ZM24.4284 24.694C22.3933 24.8002 22.2946 28.6514 24.073 29.0583C26.877 29.7006 26.9776 24.5602 24.4284 24.694Z" fill="#367A23"/>
</g>
<path d="M9.37223 0.00741836C9.77074 0.0689295 9.91158 0.406458 10.0353 0.725192C10.1529 1.02817 10.224 1.34899 10.3224 1.65976C10.6368 2.65281 11.3307 3.40244 11.9709 4.18125C12.1677 4.42067 12.4465 4.59285 12.7082 4.81015C13.4625 5.23202 14.1914 5.65076 14.9377 6.03476C15.0647 6.10011 15.3126 6.07675 15.4308 5.99179C16.2932 5.37057 17.2685 5.02016 18.2882 4.79843C18.8499 4.67633 19.4332 4.6299 20.0089 4.59726C21.0001 4.54109 21.9948 4.47485 22.9855 4.50254C23.7972 4.52523 24.6046 4.68498 25.4152 4.77109C26.3196 4.86713 27.1516 5.17329 27.9367 5.61875C28.0939 5.70793 28.2722 5.78393 28.3918 5.91172C28.717 6.2591 29.0822 6.27447 29.4787 6.09043C30.3658 5.6784 31.2149 5.21493 31.9797 4.58359C32.846 3.86831 33.5015 3.00959 33.9718 2.00742C34.1567 1.61357 34.2256 1.16588 34.3898 0.760348C34.4704 0.561521 34.6165 0.321413 34.7931 0.250582C34.9313 0.195747 35.2223 0.319983 35.341 0.455661C35.7695 0.945579 35.9999 1.55274 36.0773 2.18711C36.1596 2.86305 36.1962 3.55332 36.1652 4.233C36.1253 5.10662 35.7863 5.90624 35.3439 6.6539C34.6172 7.88187 33.5753 8.78003 32.3351 9.45761C32.1501 9.55878 32.1128 9.64647 32.2179 9.82871C32.3425 10.0444 32.4414 10.2755 32.5363 10.4684C33.4593 9.90625 34.3635 9.32345 35.299 8.79746C35.9689 8.42079 36.7028 8.21578 37.4748 8.10019C38.9721 7.87601 40.3898 8.07644 41.7443 8.73593C42.0086 8.86465 42.2743 9.01491 42.4943 9.20664C43.112 9.74517 43.1935 10.0244 42.8586 10.7486C42.4312 11.6722 41.8395 12.4662 41.0207 13.1148C40.4071 13.6008 39.7842 14.034 39.0431 14.2652C38.1318 14.5495 37.2146 14.6866 36.2355 14.5582C35.2861 14.4337 34.3781 14.2278 33.4679 13.8434C33.4679 14.1396 33.471 14.418 33.4679 14.6959C33.457 15.6755 33.213 16.616 32.9904 17.5611C32.7558 18.5572 32.5412 19.5585 32.3136 20.5562C32.1637 21.2137 31.9948 21.8673 31.8556 22.5269C31.7444 23.0542 31.6592 23.5875 31.5539 24.1812C30.1568 18.2065 17.6703 16.0993 13.1164 22.0553C12.7458 22.5401 12.4689 23.0161 12.2755 23.4801C12.0972 22.5834 11.9245 21.6856 11.7297 20.7926C11.5187 19.8261 11.2611 18.8695 11.0461 17.9039C10.88 17.1583 10.723 16.4087 10.6086 15.6539C10.5204 15.0721 10.5041 14.4791 10.4533 13.858C10.1568 13.9579 9.86262 14.057 9.56852 14.1559C8.63995 14.4678 7.68684 14.6633 6.70621 14.6178C4.94271 14.5358 3.38042 13.955 2.21696 12.5728C1.81041 12.0899 1.44318 11.5411 1.19547 10.9635C0.681301 9.7644 0.988955 9.45879 1.88492 8.90976C2.58531 8.48061 3.37066 8.22189 4.20719 8.10117C5.68968 7.88731 7.09341 8.06874 8.44547 8.7125C9.39746 9.16583 10.2447 9.77761 11.0802 10.4088C11.1332 10.4488 11.1901 10.4838 11.2707 10.5377C11.4513 10.1978 11.6244 9.87276 11.8097 9.52402C11.4588 9.26781 11.0932 9.00433 10.7316 8.73593C9.49915 7.82105 8.60582 6.64565 8.19449 5.16562C7.93685 4.23831 7.87709 3.27837 8.03336 2.30332C8.12742 1.71646 8.2064 1.14086 8.49723 0.61484C8.52465 0.565128 8.54232 0.505983 8.58024 0.466403C8.79984 0.23759 8.99824 -0.0499996 9.37223 0.00741836ZM16.6359 13.9605C16.0033 13.865 15.4505 14.0369 15.0324 14.565C14.7349 14.9411 14.7635 15.371 14.7677 15.8033C14.7766 16.6998 15.7334 17.7403 16.8879 17.2887C17.7903 16.9174 18.1136 15.8067 17.7228 14.816C17.531 14.3299 17.1423 14.0372 16.6359 13.9605ZM28.3019 13.8687C27.5274 13.6476 26.769 13.948 26.4181 14.6305C26.0894 15.27 26.0526 15.9299 26.4054 16.5885C26.7369 17.207 27.5223 17.5295 28.1818 17.3014C28.9521 17.0344 29.3714 16.4043 29.3732 15.4459C29.46 14.6973 28.8383 14.022 28.3019 13.8687Z" fill="#367A23"/>
<defs>
<clipPath id="clip0_1_2159">
<rect width="19.759" height="15.3681" fill="white" transform="translate(11.9229 20.0725)"/>
</clipPath>
</defs>
</svg>
