<svg width="15" height="18" viewBox="0 0 15 18" fill="none" xmlns="http://www.w3.org/2000/svg">
<path d="M7.56407 4.67768C9.63313 4.25392 11.1162 2.54841 11.0956 0.440186C9.02654 0.863945 7.54343 2.56945 7.56407 4.67768Z" fill="#1D1D1D" fill-opacity="0.9"/>
<path d="M13.9483 5.79834C12.6769 6.43666 11.8022 7.74881 11.8022 9.2683C11.8022 11.0761 12.9524 12.591 14.625 13.0243C13.7389 15.5038 12.186 17.3902 11.0955 17.3902C10.1442 17.3902 9.59629 17.168 9.11286 16.972L9.11081 16.9712C8.7328 16.8174 8.40581 16.6846 7.91708 16.6846C7.42847 16.6846 7.10155 16.8173 6.72369 16.9707L6.72331 16.9708L6.72271 16.971C6.23894 17.1675 5.69094 17.3902 4.73833 17.3902C3.18172 17.3902 0.5 13.5513 0.5 9.62177C0.5 4.81631 4.30442 4.67768 4.73833 4.67768C5.42713 4.67768 5.91861 4.86425 6.39357 5.04459C6.85369 5.21943 7.28828 5.38427 7.91708 5.38427C8.54585 5.38427 8.98044 5.21943 9.44056 5.04459C9.91551 4.86425 10.407 4.67768 11.0958 4.67768C11.3549 4.67768 12.8133 4.73531 13.9483 5.79834Z" fill="#1D1D1D" fill-opacity="0.9"/>
</svg>
