<svg width="18" height="17" viewBox="0 0 18 17" fill="none" xmlns="http://www.w3.org/2000/svg">
<g clip-path="url(#clip0_1_5272)">
<path d="M17.7812 9.03086C18.075 8.73711 18.075 8.26211 17.7812 7.97148L13.5312 3.71836C13.2375 3.42461 12.7625 3.42461 12.4719 3.71836C12.1813 4.01211 12.1781 4.48711 12.4719 4.77773L15.4406 7.74648H0.75C0.334375 7.74648 0 8.08086 0 8.49648C0 8.91211 0.334375 9.24648 0.75 9.24648H15.4406L12.4719 12.2152C12.1781 12.509 12.1781 12.984 12.4719 13.2746C12.7656 13.5652 13.2406 13.5684 13.5312 13.2746L17.7812 9.03086Z" fill="#367A23"/>
</g>
<defs>
<clipPath id="clip0_1_5272">
<rect width="18" height="16" fill="white" transform="translate(0 0.5)"/>
</clipPath>
</defs>
</svg>
