<svg width="20" height="20" viewBox="0 0 20 20" fill="none" xmlns="http://www.w3.org/2000/svg">
<g clip-path="url(#clip0_5549_176)">
<path d="M4.39844 1.61694C2.84375 3.0974 1.875 5.18334 1.875 7.49975C1.875 8.01928 1.45703 8.43725 0.9375 8.43725C0.417969 8.43725 0 8.01928 0 7.49975C0 4.65209 1.19141 2.07787 3.10156 0.257561C3.47656 -0.0979076 4.07031 -0.0861888 4.42969 0.288811C4.78906 0.663811 4.77344 1.25756 4.39844 1.61303V1.61694ZM16.8984 0.257561C18.8086 2.07787 20 4.64819 20 7.49975C20 8.01928 19.582 8.43725 19.0625 8.43725C18.543 8.43725 18.125 8.01928 18.125 7.49975C18.125 5.18334 17.1562 3.0974 15.6016 1.61694C15.2266 1.26147 15.2109 0.667717 15.5703 0.292717C15.9297 -0.0822826 16.5195 -0.0979076 16.8945 0.261467L16.8984 0.257561ZM9.0625 0.937249C9.0625 0.417717 9.48047 -0.000251322 10 -0.000251322C10.5195 -0.000251322 10.9375 0.417717 10.9375 0.937249V1.31615C14.1172 1.76928 16.5625 4.50756 16.5625 7.81225V8.37866C16.5625 9.85131 16.9531 11.2966 17.6953 12.5701L18.5508 14.0349C18.6836 14.2615 18.75 14.5154 18.75 14.7771C18.75 15.5935 18.0898 16.2537 17.2734 16.2537L2.72656 16.2497C1.91016 16.2497 1.25 15.5896 1.25 14.7732C1.25 14.5115 1.32031 14.2537 1.44922 14.031L2.30469 12.5662C3.04688 11.2927 3.4375 9.8474 3.4375 8.37475V7.81225C3.4375 4.50756 5.88281 1.76928 9.0625 1.31615V0.937249ZM16.0742 13.5115C15.168 11.9529 14.6875 10.1794 14.6875 8.37866V7.81225C14.6875 5.2224 12.5898 3.12475 10 3.12475C7.41016 3.12475 5.3125 5.2224 5.3125 7.81225V8.37866C5.3125 10.1833 4.83203 11.9529 3.92578 13.5115L3.42188 14.3747H16.582L16.0781 13.5115H16.0742ZM10 19.9997C8.77734 19.9997 7.73438 19.2185 7.34766 18.1247H12.6523C12.2656 19.2185 11.2227 19.9997 10 19.9997Z" fill="#1D1D1D"/>
</g>
<defs>
<clipPath id="clip0_5549_176">
<rect width="20" height="20" fill="white"/>
</clipPath>
</defs>
</svg>
