<svg width="23" height="21" viewBox="0 0 23 21" fill="none" xmlns="http://www.w3.org/2000/svg">
<g clip-path="url(#clip0_1_5859)">
<path d="M11.25 3.625C8.70313 3.625 6.60938 4.78125 5.00391 6.26953C3.5 7.66797 2.46094 9.32812 1.92969 10.5C2.46094 11.6719 3.5 13.332 5.00391 14.7305C6.60938 16.2187 8.70313 17.375 11.25 17.375C13.7969 17.375 15.8906 16.2187 17.4961 14.7305C19 13.332 20.0391 11.6719 20.5703 10.5C20.0391 9.32812 19 7.66797 17.4961 6.26953C15.8906 4.78125 13.7969 3.625 11.25 3.625ZM3.72656 4.89844C5.56641 3.1875 8.09375 1.75 11.25 1.75C14.4063 1.75 16.9336 3.1875 18.7734 4.89844C20.6016 6.59766 21.8242 8.625 22.4062 10.0195C22.5352 10.3281 22.5352 10.6719 22.4062 10.9805C21.8242 12.375 20.6016 14.4062 18.7734 16.1016C16.9336 17.8086 14.4063 19.25 11.25 19.25C8.09375 19.25 5.56641 17.8125 3.72656 16.1016C1.89844 14.4023 0.675781 12.375 0.09375 10.9805C-0.0351562 10.6719 -0.0351562 10.3281 0.09375 10.0195C0.675781 8.625 1.89844 6.59375 3.72656 4.89844ZM11.25 13.625C12.9766 13.625 14.375 12.2266 14.375 10.5C14.375 9.34375 13.7461 8.33203 12.8125 7.79297C12.7578 10.125 10.875 12.0078 8.54297 12.0625C9.08203 12.9961 10.0938 13.625 11.25 13.625ZM8.14062 10.1719C8.23828 10.1836 8.33594 10.1875 8.4375 10.1875C9.81641 10.1875 10.9375 9.06641 10.9375 7.6875C10.9375 7.58594 10.9297 7.48828 10.9219 7.39062C9.46094 7.54297 8.29688 8.70703 8.14453 10.168L8.14062 10.1719ZM9.92188 5.67969C10.3438 5.5625 10.7891 5.50391 11.2461 5.50391C11.5898 5.50391 11.9297 5.53906 12.2539 5.60547C12.2656 5.60938 12.2734 5.60937 12.2852 5.61328C14.5469 6.08984 16.2461 8.10156 16.2461 10.5039C16.2461 13.2656 14.0078 15.5039 11.2461 15.5039C8.83984 15.5039 6.83203 13.8047 6.35547 11.543C6.28516 11.207 6.24609 10.8594 6.24609 10.5039C6.24609 10.0742 6.30078 9.65234 6.40234 9.25391C6.41016 9.22656 6.41406 9.20312 6.42187 9.17969C6.88672 7.48438 8.22266 6.14844 9.91797 5.68359L9.92188 5.67969Z" fill="#1D1D1D"/>
</g>
<defs>
<clipPath id="clip0_1_5859">
<rect width="22.5" height="20" fill="white" transform="translate(0 0.5)"/>
</clipPath>
</defs>
</svg>
