<svg width="110" height="31" viewBox="0 0 110 31" fill="none" xmlns="http://www.w3.org/2000/svg">
<g clip-path="url(#clip0_1_2316)">
<path d="M32.054 6.37002L31.834 5.90802H35.618C38.522 5.90802 40.502 7.47002 40.502 10.506C40.502 13.52 38.522 15.126 35.618 15.126H32.054V6.37002ZM34.342 7.77802V13.278H35.64C37.202 13.278 38.192 12.376 38.192 10.506C38.192 8.63602 37.202 7.77802 35.64 7.77802H34.342Z" fill="#1D1D1D"/>
<path d="M46.926 13.256H43.45L42.812 15.148H40.48L43.846 6.25999L43.692 5.92999H46.464L49.94 15.126H47.586L46.926 13.256ZM46.332 11.496L45.21 8.21799L44.066 11.496H46.332Z" fill="#1D1D1D"/>
<path d="M50.864 6.37002L50.644 5.90802H53.152V13.256H57.464V15.104H50.864V6.37002Z" fill="#1D1D1D"/>
<path d="M58.652 6.37002L58.432 5.90802H60.94V9.56002H64.68V6.37002L64.46 5.90802H66.968V15.126H64.68V11.408H60.94V15.126H58.674V6.37002H58.652Z" fill="#1D1D1D"/>
<path d="M73.084 5.776C75.702 5.776 77.858 7.602 77.858 10.506C77.858 13.41 75.702 15.258 73.084 15.258C70.488 15.258 68.31 13.41 68.31 10.506C68.31 7.602 70.466 5.776 73.084 5.776ZM73.084 13.322C74.58 13.322 75.526 12.112 75.526 10.528C75.526 8.922 74.58 7.734 73.084 7.734C71.588 7.734 70.62 8.922 70.62 10.506C70.62 12.112 71.588 13.322 73.084 13.322Z" fill="#1D1D1D"/>
<path d="M85.184 6.37002L84.942 5.90802H87.45V11.32C87.45 13.85 85.844 15.28 83.314 15.28C80.784 15.28 79.2 13.85 79.2 11.32V6.37002L78.958 5.90802H81.466V11.364C81.466 12.574 82.148 13.322 83.314 13.322C84.48 13.322 85.184 12.574 85.184 11.364V6.37002Z" fill="#1D1D1D"/>
<path d="M88.99 12.728C90.156 13.19 91.432 13.432 92.378 13.432C93.346 13.432 93.962 13.102 93.962 12.508C93.962 11.892 93.258 11.628 92.114 11.43C90.288 11.144 88.858 10.396 88.858 8.65797C88.858 6.78797 90.596 5.79797 92.752 5.79797C93.874 5.79797 94.886 5.97397 95.942 6.32597V8.30597C94.798 7.88797 93.698 7.64597 92.774 7.64597C91.828 7.64597 91.168 7.97597 91.168 8.56997C91.168 9.18597 91.872 9.42797 93.038 9.60397C94.864 9.88997 96.272 10.66 96.272 12.398C96.272 14.268 94.644 15.258 92.444 15.258C91.234 15.258 90.046 15.038 88.99 14.686V12.728Z" fill="#1D1D1D"/>
<path d="M97.922 6.39199L97.68 5.92999H100.188V15.148H97.922V6.39199Z" fill="#1D1D1D"/>
<path d="M102.168 6.39199L101.926 5.92999H109.054V7.77799H104.434V9.62599H108.372V11.386H104.434V13.278H109.054V15.126H102.168V6.39199Z" fill="#1D1D1D"/>
<path d="M37.51 22.1C37.51 22.672 37.422 23.156 37.224 23.552C37.026 23.948 36.74 24.256 36.344 24.454C35.948 24.652 35.42 24.762 34.782 24.762C34.144 24.762 33.616 24.652 33.22 24.454C32.824 24.234 32.538 23.926 32.34 23.508C32.164 23.09 32.076 22.584 32.076 21.99V17.238H33.066V22.144C33.066 22.738 33.22 23.2 33.506 23.486C33.814 23.794 34.232 23.926 34.782 23.926C35.156 23.926 35.464 23.86 35.728 23.728C35.992 23.596 36.19 23.398 36.322 23.134C36.454 22.87 36.52 22.54 36.52 22.122V17.238H37.466V22.1H37.51Z" fill="#1D1D1D"/>
<path d="M46.156 17.238H47.102V24.674H46.244L42.262 18.8V24.652H41.316V17.238H42.218L46.134 23.024V17.238H46.156Z" fill="#1D1D1D"/>
<path d="M51.304 17.238H52.25V24.674H51.304V17.238Z" fill="#1D1D1D"/>
<path d="M61.886 17.238L59.246 24.674H58.102L55.506 17.238H56.452L58.674 23.596L60.94 17.238H61.886Z" fill="#1D1D1D"/>
<path d="M64.724 24.674V17.238H69.41V18.074H65.692V20.494H69.058V21.33H65.692V23.816H69.52V24.674H64.724Z" fill="#1D1D1D"/>
<path d="M78.452 24.674H77.44L76.076 21.462H74.074V24.674H73.128V17.238H76.01C76.538 17.238 77 17.326 77.352 17.48C77.704 17.634 77.99 17.876 78.166 18.184C78.342 18.492 78.43 18.844 78.43 19.262C78.43 19.658 78.364 20.01 78.21 20.274C78.078 20.538 77.88 20.758 77.66 20.912C77.44 21.066 77.22 21.198 76.978 21.286L78.452 24.674ZM75.702 20.67C76.252 20.67 76.692 20.56 77 20.318C77.308 20.098 77.462 19.746 77.462 19.306C77.462 18.866 77.33 18.536 77.044 18.316C76.78 18.096 76.406 17.986 75.922 17.986H74.074V20.648H75.702V20.67Z" fill="#1D1D1D"/>
<path d="M84.634 24.762C84.282 24.762 83.952 24.718 83.622 24.63C83.292 24.542 82.984 24.41 82.72 24.234C82.456 24.058 82.236 23.838 82.06 23.574C81.884 23.31 81.774 23.024 81.73 22.672H82.72C82.786 22.958 82.896 23.2 83.094 23.376C83.27 23.574 83.512 23.706 83.776 23.816C84.04 23.904 84.326 23.97 84.634 23.97C84.986 23.97 85.294 23.926 85.58 23.816C85.866 23.728 86.064 23.574 86.24 23.398C86.394 23.222 86.482 23.002 86.482 22.738C86.482 22.518 86.438 22.32 86.328 22.166C86.218 22.012 86.086 21.858 85.888 21.748C85.69 21.638 85.47 21.55 85.184 21.484L83.732 21.154C83.182 21.044 82.764 20.824 82.434 20.516C82.126 20.208 81.972 19.79 81.95 19.284C81.95 18.866 82.06 18.47 82.302 18.162C82.522 17.832 82.852 17.59 83.248 17.392C83.644 17.216 84.106 17.128 84.612 17.128C85.206 17.128 85.712 17.238 86.108 17.436C86.504 17.634 86.812 17.898 87.032 18.228C87.23 18.558 87.34 18.91 87.34 19.284H86.35C86.328 18.954 86.218 18.69 86.064 18.492C85.888 18.294 85.69 18.162 85.448 18.074C85.206 17.986 84.92 17.942 84.634 17.942C84.414 17.942 84.216 17.964 84.018 18.03C83.82 18.074 83.644 18.162 83.49 18.272C83.336 18.382 83.204 18.514 83.116 18.668C83.028 18.822 82.984 18.998 82.984 19.218C82.984 19.482 83.072 19.702 83.248 19.878C83.424 20.054 83.754 20.186 84.238 20.318L85.646 20.648C86.02 20.736 86.328 20.846 86.548 21C86.79 21.154 86.966 21.33 87.098 21.528C87.23 21.726 87.318 21.924 87.362 22.144C87.406 22.364 87.428 22.562 87.428 22.782C87.428 23.156 87.318 23.486 87.098 23.794C86.878 24.102 86.548 24.344 86.13 24.52C85.734 24.674 85.228 24.762 84.634 24.762Z" fill="#1D1D1D"/>
<path d="M91.08 17.238H92.026V24.674H91.08V17.238Z" fill="#1D1D1D"/>
<path d="M95.282 18.118V17.238H100.914V18.118H98.648V24.674H97.68V18.118H95.282Z" fill="#1D1D1D"/>
<path d="M109.296 17.238L106.788 21.506V24.674H105.842V21.506L103.312 17.238H104.346L106.326 20.648L108.262 17.238H109.296Z" fill="#1D1D1D"/>
<path d="M23.078 7.57998C23.056 7.57998 21.736 7.99798 20.064 7.55798C19.91 7.51398 19.8 7.38198 19.822 7.22798C19.822 7.22798 19.822 7.22798 19.822 7.20598C19.844 7.00798 20.02 6.87598 20.218 6.89798C20.57 6.96398 20.9 7.00798 21.23 7.02998C21.626 7.05198 21.978 7.05198 22.308 7.00798C23.166 6.94198 23.694 6.06198 23.386 5.24798C23.364 5.24798 21.56 5.95198 19.448 5.09398C18.964 4.89598 17.556 4.27998 17.556 4.27998C17.248 4.14798 16.896 4.32398 16.852 4.65398C16.852 4.67598 16.852 4.69798 16.852 4.71998V7.40398C16.852 7.86598 16.742 8.26198 16.566 8.61398C16.5 8.74598 16.412 8.87798 16.324 9.00998C16.28 9.07598 16.236 9.11998 16.17 9.18598C15.752 9.64798 15.158 9.95598 14.476 10.11L14.102 10.748C14.058 10.814 14.014 10.858 13.948 10.88C13.882 10.902 13.816 10.924 13.75 10.924C13.662 10.924 13.552 10.902 13.486 10.814C13.464 10.792 13.442 10.77 13.42 10.726L13.046 10.088C12.122 9.86798 11.352 9.36198 10.956 8.59198C10.78 8.23998 10.67 7.84398 10.67 7.38198V4.74198C10.67 4.71998 10.67 4.69798 10.67 4.67598C10.626 4.34598 10.252 4.16998 9.96599 4.30198C9.96599 4.30198 8.53599 4.91798 8.07399 5.11598C5.96199 5.97398 4.15799 5.26998 4.13599 5.26998C3.82799 6.06198 4.35599 6.94198 5.21399 7.02998C5.54399 7.05198 5.89599 7.07398 6.29199 7.05198C6.59999 7.02998 6.95199 6.98598 7.30399 6.91998C7.50199 6.87598 7.67799 7.02998 7.69999 7.22798C7.69999 7.22798 7.69999 7.22798 7.69999 7.24998C7.69999 7.40398 7.61199 7.55798 7.45799 7.57998C5.78599 8.01998 4.46599 7.60198 4.44399 7.60198C4.17999 8.41598 4.75199 9.27398 5.60999 9.29598C5.93999 9.31798 6.29199 9.29598 6.68799 9.25198C6.99599 9.22998 7.30399 9.16398 7.63399 9.09798C7.80999 9.05398 7.98599 9.16398 8.02999 9.33998C8.07399 9.51598 7.96399 9.66998 7.80999 9.73598C6.26999 10.22 5.03799 9.95598 5.01599 9.95598C4.81799 10.792 5.47799 11.584 6.31399 11.54C6.64399 11.518 6.99599 11.474 7.36999 11.408C7.63399 11.364 7.91999 11.276 8.22799 11.188C8.40399 11.144 8.57999 11.232 8.62399 11.386C8.62399 11.408 8.62399 11.408 8.64599 11.43C8.71199 11.584 8.62399 11.76 8.46999 11.848C7.19399 12.464 6.11599 12.464 6.11599 12.464C6.11599 13.3 6.92999 13.96 7.74399 13.74C8.05199 13.652 8.40399 13.542 8.75599 13.388C8.88799 13.322 9.01999 13.278 9.17399 13.19C9.32799 13.124 9.50399 13.168 9.59199 13.3L9.61399 13.322C9.72399 13.476 9.67999 13.674 9.52599 13.784C8.60199 14.4 7.78799 14.576 7.78799 14.576C7.94199 15.412 8.86599 15.874 9.63599 15.478C9.92199 15.324 10.23 15.148 10.56 14.928C10.56 14.928 10.582 14.928 10.582 14.906C10.714 14.818 10.89 14.818 11 14.95C11.022 14.972 11.022 14.972 11.044 14.994C11.154 15.104 11.176 15.302 11.066 15.434C10.45 16.182 9.87799 16.534 9.85599 16.534C10.296 17.282 11.308 17.392 11.902 16.776C11.99 16.666 12.1 16.556 12.21 16.446C12.474 16.908 12.672 17.48 12.804 18.25C12.826 18.404 12.848 18.558 12.87 18.712C11.528 20.164 9.92199 20.472 9.89999 20.472C10.054 21.308 10.956 21.792 11.726 21.418C12.012 21.286 12.32 21.088 12.65 20.89C12.782 20.802 12.892 20.714 13.024 20.626L13.068 21.484C12.232 22.144 11.484 22.386 11.462 22.386L11.55 22.694C11.748 23.332 12.474 23.64 13.068 23.31C13.09 23.288 13.112 23.288 13.156 23.266V24.498C13.156 24.718 13.266 24.916 13.442 25.092L13.772 25.4L14.102 25.092C14.278 24.916 14.388 24.718 14.388 24.498V23.266C14.41 23.288 14.432 23.31 14.476 23.31C15.048 23.64 15.796 23.332 15.994 22.694L16.082 22.386C16.06 22.386 15.334 22.144 14.476 21.484L14.52 20.626C14.652 20.714 14.762 20.824 14.894 20.89C15.224 21.11 15.532 21.286 15.818 21.418C16.588 21.792 17.49 21.308 17.644 20.472C17.622 20.472 16.038 20.164 14.674 18.712C14.696 18.558 14.718 18.404 14.74 18.25C14.85 17.502 15.07 16.93 15.334 16.446C15.444 16.556 15.532 16.688 15.642 16.776C16.236 17.392 17.248 17.282 17.688 16.534C17.688 16.534 17.094 16.182 16.478 15.434C16.368 15.302 16.368 15.104 16.5 14.994C16.522 14.972 16.522 14.972 16.544 14.95C16.654 14.84 16.83 14.818 16.962 14.906C16.962 14.906 16.984 14.906 16.984 14.928C17.292 15.148 17.622 15.346 17.908 15.478C18.678 15.874 19.602 15.412 19.756 14.576C19.734 14.576 18.942 14.4 18.018 13.784C17.864 13.674 17.82 13.476 17.93 13.322L17.952 13.3C18.04 13.168 18.216 13.124 18.37 13.19C18.502 13.256 18.656 13.322 18.788 13.388C19.14 13.542 19.492 13.652 19.8 13.74C20.636 13.96 21.428 13.3 21.406 12.464C21.384 12.464 20.306 12.464 19.052 11.848C18.898 11.782 18.832 11.606 18.876 11.43C18.876 11.408 18.876 11.408 18.898 11.386C18.964 11.232 19.14 11.144 19.294 11.188C19.58 11.276 19.866 11.342 20.152 11.408C20.526 11.474 20.9 11.518 21.208 11.54C22.066 11.584 22.704 10.792 22.506 9.95598C22.484 9.95598 21.252 10.22 19.712 9.73598C19.558 9.69198 19.448 9.51598 19.492 9.33998C19.536 9.16398 19.712 9.05398 19.888 9.09798C20.218 9.16398 20.548 9.22998 20.834 9.25198C21.23 9.29598 21.582 9.29598 21.912 9.29598C22.77 9.25198 23.364 8.39398 23.078 7.57998Z" fill="#1D1D1D"/>
<path d="M15.73 4.49996H13.42C13.112 4.49996 12.848 4.69796 12.738 4.98396H12.298C11.792 4.98396 11.374 5.40196 11.374 5.90796V6.98595C11.484 6.74396 11.726 6.56796 12.012 6.56796H12.826L12.32 8.63595C12.276 8.76795 12.364 8.87796 12.474 8.87796C12.87 8.87796 13.024 8.81195 13.332 8.52596L13.662 9.44995C13.684 9.49396 13.706 9.51595 13.75 9.51595C13.794 9.51595 13.816 9.49396 13.838 9.44995L14.168 8.52596C14.454 8.81195 14.63 8.87796 15.026 8.87796C15.158 8.87796 15.224 8.74595 15.18 8.63595L14.916 6.56796H14.96C15.466 6.56796 15.884 6.14996 15.884 5.64396V5.62196C16.082 5.48996 16.214 5.26996 16.214 5.02796V4.19196C16.148 4.36796 15.95 4.49996 15.73 4.49996ZM13.75 5.53396C13.684 5.57796 13.596 5.55596 13.53 5.51196L13.398 5.37996C13.332 5.31396 13.332 5.20396 13.398 5.11596L13.53 4.98396C13.596 4.91796 13.684 4.91796 13.75 4.96196L14.256 5.24796L13.75 5.53396Z" fill="#1D1D1D"/>
<path d="M25.762 10.946C25.762 19.306 15.928 27.314 13.728 28.986C11.528 27.314 1.694 19.328 1.694 10.946V1.66195H25.74V10.946H25.762ZM0.220001 0.165955V10.924C0.220001 15.214 2.442 19.812 6.798 24.608C10.01 28.128 13.178 30.3939 13.31 30.5039L13.75 30.812L14.19 30.5039C14.322 30.4159 17.49 28.15 20.702 24.608C25.058 19.812 27.28 15.214 27.28 10.924V0.165955H0.220001Z" fill="#FFD400"/>
</g>
<defs>
<clipPath id="clip0_1_2316">
<rect width="110" height="30.8" fill="white" transform="translate(0 0.0999756)"/>
</clipPath>
</defs>
</svg>
