<svg width="20" height="21" viewBox="0 0 20 21" fill="none" xmlns="http://www.w3.org/2000/svg">
<path d="M9.0625 3.9375C9.0625 4.45703 9.48047 4.875 10 4.875C10.5195 4.875 10.9375 4.45703 10.9375 3.9375V1.4375C10.9375 0.917969 10.5195 0.5 10 0.5C9.48047 0.5 9.0625 0.917969 9.0625 1.4375V3.9375ZM10 8.625C10.4973 8.625 10.9742 8.82254 11.3258 9.17417C11.6775 9.52581 11.875 10.0027 11.875 10.5C11.875 10.9973 11.6775 11.4742 11.3258 11.8258C10.9742 12.1775 10.4973 12.375 10 12.375C9.50272 12.375 9.02581 12.1775 8.67417 11.8258C8.32254 11.4742 8.125 10.9973 8.125 10.5C8.125 10.0027 8.32254 9.52581 8.67417 9.17417C9.02581 8.82254 9.50272 8.625 10 8.625ZM10 14.25C10.9946 14.25 11.9484 13.8549 12.6517 13.1517C13.3549 12.4484 13.75 11.4946 13.75 10.5C13.75 9.50544 13.3549 8.55161 12.6517 7.84835C11.9484 7.14509 10.9946 6.75 10 6.75C9.00544 6.75 8.05161 7.14509 7.34835 7.84835C6.64509 8.55161 6.25 9.50544 6.25 10.5C6.25 11.4946 6.64509 12.4484 7.34835 13.1517C8.05161 13.8549 9.00544 14.25 10 14.25ZM0 10.5C0 11.0195 0.417969 11.4375 0.9375 11.4375H3.4375C3.95703 11.4375 4.375 11.0195 4.375 10.5C4.375 9.98047 3.95703 9.5625 3.4375 9.5625H0.9375C0.417969 9.5625 0 9.98047 0 10.5ZM16.5625 9.5625C16.043 9.5625 15.625 9.98047 15.625 10.5C15.625 11.0195 16.043 11.4375 16.5625 11.4375H19.0625C19.582 11.4375 20 11.0195 20 10.5C20 9.98047 19.582 9.5625 19.0625 9.5625H16.5625ZM10 20.5C10.5195 20.5 10.9375 20.082 10.9375 19.5625V17.0625C10.9375 16.543 10.5195 16.125 10 16.125C9.48047 16.125 9.0625 16.543 9.0625 17.0625V19.5625C9.0625 20.082 9.48047 20.5 10 20.5ZM2.92969 3.42969C2.5625 3.79688 2.5625 4.39062 2.92969 4.75391L4.69922 6.52344C5.06641 6.89062 5.66016 6.89062 6.02344 6.52344C6.38672 6.15625 6.39062 5.5625 6.02344 5.19922L4.25391 3.42969C3.88672 3.0625 3.29297 3.0625 2.92969 3.42969ZM15.3047 14.4766C14.9375 14.1094 14.3438 14.1094 13.9805 14.4766C13.6172 14.8437 13.6133 15.4375 13.9805 15.8008L15.7461 17.5703C16.1133 17.9375 16.707 17.9375 17.0703 17.5703C17.4336 17.2031 17.4375 16.6094 17.0703 16.2461L15.3008 14.4766H15.3047ZM2.92969 17.5703C3.29688 17.9375 3.89062 17.9375 4.25391 17.5703L6.02344 15.8008C6.39062 15.4336 6.39062 14.8398 6.02344 14.4766C5.65625 14.1133 5.0625 14.1094 4.69922 14.4766L2.92969 16.2461C2.5625 16.6133 2.5625 17.207 2.92969 17.5703ZM13.9766 5.19531C13.6094 5.5625 13.6094 6.15625 13.9766 6.51953C14.3437 6.88281 14.9375 6.88672 15.3008 6.51953L17.0703 4.75391C17.4375 4.38672 17.4375 3.79297 17.0703 3.42969C16.7031 3.06641 16.1094 3.0625 15.7461 3.42969L13.9766 5.19922V5.19531Z" fill="#1D1D1D"/>
</svg>
