<svg width="23" height="19" viewBox="0 0 23 19" fill="none" xmlns="http://www.w3.org/2000/svg">
<path d="M1.875 4.8125V2.625H5.3125V16.375H3.4375C2.91797 16.375 2.5 16.793 2.5 17.3125C2.5 17.832 2.91797 18.25 3.4375 18.25H9.0625C9.58203 18.25 10 17.832 10 17.3125C10 16.793 9.58203 16.375 9.0625 16.375H7.1875V2.625H10.625V4.8125C10.625 5.33203 11.043 5.75 11.5625 5.75C12.082 5.75 12.5 5.33203 12.5 4.8125V2.3125C12.5 1.44922 11.8008 0.75 10.9375 0.75H1.5625C0.699219 0.75 0 1.44922 0 2.3125V4.8125C0 5.33203 0.417969 5.75 0.9375 5.75C1.45703 5.75 1.875 5.33203 1.875 4.8125ZM11.875 12.3125V10.125H15.3125V16.375H13.4375C12.918 16.375 12.5 16.793 12.5 17.3125C12.5 17.832 12.918 18.25 13.4375 18.25H19.0625C19.582 18.25 20 17.832 20 17.3125C20 16.793 19.582 16.375 19.0625 16.375H17.1875V10.125H20.625V12.3125C20.625 12.832 21.043 13.25 21.5625 13.25C22.082 13.25 22.5 12.832 22.5 12.3125V9.8125C22.5 8.94922 21.8008 8.25 20.9375 8.25H11.5625C10.6992 8.25 10 8.94922 10 9.8125V12.3125C10 12.832 10.418 13.25 10.9375 13.25C11.457 13.25 11.875 12.832 11.875 12.3125Z" fill="#1D1D1D"/>
</svg>
