<svg width="18" height="19" viewBox="0 0 18 19" fill="none" xmlns="http://www.w3.org/2000/svg">
<g clip-path="url(#clip0_1_2141)">
<path d="M8.99999 4.00269C10.3275 4.00269 11.5162 4.46019 12.4537 5.35269L15.0225 2.78394C13.4625 1.33269 11.4262 0.440186 8.99999 0.440186C5.48249 0.440186 2.44124 2.45769 0.959991 5.39769L3.95249 7.71894C4.66124 5.58519 6.65249 4.00269 8.99999 4.00269Z" fill="#EA4335"/>
<path d="M17.6175 9.64644C17.6175 9.05769 17.5612 8.48769 17.475 7.94019H9V11.3227H13.8525C13.635 12.4327 13.005 13.3777 12.06 14.0152L14.9588 16.2652C16.65 14.6977 17.6175 12.3802 17.6175 9.64644Z" fill="#4285F4"/>
<path d="M3.94875 11.1615C3.76875 10.6177 3.66375 10.0402 3.66375 9.44021C3.66375 8.8402 3.765 8.2627 3.94875 7.71896L0.95625 5.39771C0.345 6.61271 0 7.9852 0 9.44021C0 10.8952 0.345 12.2677 0.96 13.4827L3.94875 11.1615Z" fill="#FBBC05"/>
<path d="M8.99999 18.4402C11.43 18.4402 13.4737 17.6415 14.9587 16.2615L12.06 14.0115C11.2537 14.5552 10.215 14.874 8.99999 14.874C6.65249 14.874 4.66124 13.2915 3.94874 11.1577L0.956238 13.479C2.44124 16.4227 5.48249 18.4402 8.99999 18.4402Z" fill="#34A853"/>
</g>
<defs>
<clipPath id="clip0_1_2141">
<rect width="18" height="18" fill="white" transform="translate(0 0.440186)"/>
</clipPath>
</defs>
</svg>
