<svg width="20" height="21" viewBox="0 0 20 21" fill="none" xmlns="http://www.w3.org/2000/svg">
<g clip-path="url(#clip0_1_5734)">
<path d="M0 9.875C0 12 0.753906 13.9609 2.02734 15.5352L0.121094 19.0273C0.0429687 19.1719 0 19.3359 0 19.5039C0 20.0547 0.445312 20.5 0.996094 20.5C1.15234 20.5 1.30078 20.4766 1.44531 20.418L5.99219 18.4688C7.21875 18.9727 8.57422 19.25 10 19.25C15.5234 19.25 20 15.0508 20 9.875C20 4.69922 15.5234 0.5 10 0.5C4.47656 0.5 0 4.69922 0 9.875ZM3.67188 16.4336C4.03516 15.7656 3.96094 14.9453 3.48438 14.3555C2.46484 13.0938 1.875 11.5469 1.875 9.875C1.875 5.84375 5.39844 2.375 10 2.375C14.6016 2.375 18.125 5.84375 18.125 9.875C18.125 13.9062 14.6016 17.375 10 17.375C8.82031 17.375 7.70703 17.1445 6.70703 16.7344C6.24219 16.543 5.71875 16.5469 5.25781 16.7461L2.96875 17.7227L3.67188 16.4336ZM10 7.0625C10.6289 7.0625 11.1406 7.57422 11.1406 8.20312C11.1406 8.54297 11.0195 8.74609 10.8711 8.89453C10.6953 9.06641 10.4531 9.1875 10.2148 9.26562C9.63281 9.46094 9.0625 10.0195 9.0625 10.8086C9.0625 11.3281 9.48047 11.7461 10 11.7461C10.4492 11.7461 10.8281 11.4297 10.918 11.0039C11.668 10.7266 13.0156 9.97656 13.0156 8.19922C13.0156 6.53516 11.6641 5.18359 10 5.18359C8.33594 5.18359 6.98438 6.53516 6.98438 8.19922C6.98438 8.71875 7.40234 9.13672 7.92188 9.13672C8.44141 9.13672 8.85938 8.71875 8.85938 8.19922C8.85938 7.57031 9.37109 7.05859 10 7.05859V7.0625ZM11.0938 13.625C11.0938 13.3349 10.9785 13.0567 10.7734 12.8516C10.5683 12.6465 10.2901 12.5312 10 12.5312C9.70992 12.5312 9.43172 12.6465 9.2266 12.8516C9.02148 13.0567 8.90625 13.3349 8.90625 13.625C8.90625 13.9151 9.02148 14.1933 9.2266 14.3984C9.43172 14.6035 9.70992 14.7188 10 14.7188C10.2901 14.7188 10.5683 14.6035 10.7734 14.3984C10.9785 14.1933 11.0938 13.9151 11.0938 13.625Z" fill="#1D1D1D"/>
</g>
<defs>
<clipPath id="clip0_1_5734">
<rect width="20" height="20" fill="white" transform="translate(0 0.5)"/>
</clipPath>
</defs>
</svg>
