<svg width="20" height="21" viewBox="0 0 20 21" fill="none" xmlns="http://www.w3.org/2000/svg">
<g clip-path="url(#clip0_1_5744)">
<path d="M19.7266 11.1641C20.0938 10.7969 20.0938 10.2031 19.7266 9.83984L14.1016 4.21094C13.832 3.94141 13.4297 3.86328 13.0781 4.00781C12.7266 4.15234 12.5 4.49609 12.5 4.875V7.375H8.125C7.08984 7.375 6.25 8.21484 6.25 9.25V11.75C6.25 12.7852 7.08984 13.625 8.125 13.625H12.5V16.125C12.5 16.5039 12.7266 16.8477 13.0781 16.9922C13.4297 17.1367 13.832 17.0586 14.1016 16.7891L19.7266 11.1641ZM14.375 8.3125V7.13672L17.7383 10.5L14.375 13.8633V12.6875C14.375 12.168 13.957 11.75 13.4375 11.75H8.125V9.25H13.4375C13.957 9.25 14.375 8.83203 14.375 8.3125ZM6.5625 3.625C7.08203 3.625 7.5 3.20703 7.5 2.6875C7.5 2.16797 7.08203 1.75 6.5625 1.75H3.75C1.67969 1.75 0 3.42969 0 5.5V15.5C0 17.5703 1.67969 19.25 3.75 19.25H6.5625C7.08203 19.25 7.5 18.832 7.5 18.3125C7.5 17.793 7.08203 17.375 6.5625 17.375H3.75C2.71484 17.375 1.875 16.5352 1.875 15.5V5.5C1.875 4.46484 2.71484 3.625 3.75 3.625H6.5625Z" fill="#1D1D1D"/>
</g>
<defs>
<clipPath id="clip0_1_5744">
<rect width="20" height="20" fill="white" transform="translate(0 0.5)"/>
</clipPath>
</defs>
</svg>
