<svg width="52" height="34" viewBox="0 0 52 34" fill="none" xmlns="http://www.w3.org/2000/svg">
<path d="M22.4851 16.654C22.6219 16.185 22.8804 15.7878 23.2504 15.4778C23.8313 14.9913 24.5291 14.8425 25.2655 14.8848C26.5454 14.9583 27.3164 15.6862 27.6862 16.8675C27.7907 17.2016 27.8143 17.5635 27.8505 17.9152C27.8654 18.0594 27.8955 18.114 28.0479 18.113C28.6754 18.1087 29.2818 18.0345 29.8186 17.6691C30.1246 17.4608 30.3297 17.1738 30.4696 16.8398C30.6891 16.3155 31.0052 15.8503 31.3523 15.408C31.59 15.1052 31.8681 14.8343 32.1241 14.5455C32.1644 14.5 32.2172 14.423 32.2028 14.3827C32.1856 14.3349 32.1056 14.3004 32.046 14.2795C31.9729 14.2539 31.8912 14.2541 31.8161 14.233C31.67 14.1918 31.5912 14.0914 31.6124 13.939C31.6333 13.7891 31.7282 13.7086 31.8846 13.7105C31.9315 13.7111 31.9783 13.7106 32.0239 13.7106C32.1103 13.3521 32.1102 13.3531 32.5146 13.3857C32.5508 13.3886 32.5996 13.3799 32.6245 13.357C32.9567 13.0511 33.318 13.1712 33.6577 13.3116C33.9867 13.4475 34.0917 13.7183 34.0363 14.0822C34.0219 14.1765 34.0066 14.2634 34.1554 14.331C34.3547 14.4215 34.5157 14.5963 34.6932 14.7349C34.6813 14.7567 34.6694 14.7786 34.6575 14.8004C34.501 14.8004 34.343 14.7873 34.1885 14.8047C34.0736 14.8177 34.0075 14.8712 34.0584 15.0254C34.1345 15.2564 34.2349 15.4894 34.1603 15.7488C34.0579 16.1051 34.041 16.1249 33.6824 16.1326C33.6562 16.1332 33.63 16.1368 33.6157 16.138C33.6875 16.7287 33.7737 17.3124 33.8249 17.8991C33.8632 18.3378 33.8957 18.7835 33.8618 19.2208C33.7904 20.1419 33.5107 20.9997 32.9524 21.7526C32.5069 22.3535 31.986 22.8836 31.3745 23.3084C30.8549 23.6694 30.3137 24.0082 29.7507 24.2954C29.1045 24.6249 28.4209 24.891 27.6832 24.9265C26.9602 24.9613 26.2348 24.9819 25.5116 24.9634C24.9579 24.9493 24.4051 24.8716 23.8533 24.8098C22.9049 24.7034 21.9952 24.4371 21.1166 24.077C20.2783 23.7335 19.488 23.2932 18.7759 22.7278C18.4029 22.4316 18.0195 22.1395 17.6933 21.7958C17.2667 21.3463 16.8508 20.8753 16.5055 20.3628C16.0755 19.7247 15.6909 19.0507 15.3433 18.3635C14.8618 17.4115 14.5347 16.4015 14.3296 15.3493C14.163 14.495 14.0953 13.6357 14.1398 12.772C14.1959 11.6859 14.4329 10.6319 14.8251 9.61524C15.1539 8.76292 15.574 7.95668 16.1153 7.22201C16.5071 6.69013 16.942 6.18991 17.3782 5.65017C17.1287 4.83316 17.3687 4.07717 17.9288 3.4007C18.1073 3.18517 18.3073 2.98718 18.5016 2.78513C18.9837 2.28376 19.4575 1.77437 19.821 1.17751C20.0048 0.875743 20.2003 0.569565 20.1475 0.167817C20.1655 0.149475 20.1834 0.149475 20.2148 0.149475C20.4028 0.295446 20.6029 0.420189 20.7464 0.592107C20.9934 0.887937 20.9459 1.25831 20.889 1.60085C20.8163 2.03775 20.6931 2.4662 20.5944 2.8989C20.5842 2.94375 20.5824 2.99525 20.5938 3.03923C20.6109 3.1053 20.6431 3.16744 20.6689 3.23125C20.7237 3.20638 20.7942 3.19549 20.8306 3.15438C21.0688 2.88508 21.3101 2.61729 21.5306 2.33365C21.8572 1.91364 22.2573 1.58456 22.7155 1.32334C23.1348 1.0843 23.5709 0.893329 24.0636 0.916141C23.8361 1.31382 23.5901 1.70289 23.3856 2.11266C23.179 2.52653 23.0192 2.96263 22.9679 3.38238C23.7855 3.64167 24.5838 3.87974 25.3702 4.15241C25.6502 4.2495 25.9153 4.41033 26.159 4.58212C26.2745 4.66358 26.362 4.83006 26.3963 4.97374C26.5481 5.61114 26.9224 6.08142 27.4034 6.50972C28.1157 7.14392 29.0066 7.40617 29.8472 7.7784C30.3192 7.9874 30.7905 8.19907 31.2532 8.42748C31.6664 8.63142 31.8318 9.00929 31.8901 9.44228C31.9659 10.0046 31.978 10.5655 31.7691 11.1059C31.661 11.3855 31.4751 11.6075 31.179 11.7001C30.9719 11.7648 30.9435 11.9593 30.8404 12.1017C30.6927 12.3058 30.5588 12.5316 30.3706 12.691C30.2315 12.8089 30.0201 12.8699 29.8323 12.8967C29.3226 12.9696 28.8095 13.0277 28.2958 13.0603C27.694 13.0985 27.1137 13.2218 26.5518 13.4311C26.3331 13.5125 26.1203 13.6178 25.9194 13.7368C25.7727 13.8238 25.6423 13.8091 25.5045 13.748C24.8594 13.462 24.1972 13.2066 23.6446 12.7497C23.5204 12.647 23.4099 12.5277 23.2978 12.4204C23.1349 12.6979 23.0282 13.0149 23.1939 13.3852C22.4131 13.0516 21.6792 12.6779 20.8022 12.6182C20.9042 12.8351 21.0104 13.0105 21.0711 13.2004C21.2058 13.6217 21.3175 14.0503 21.4391 14.4758C21.5686 14.9292 21.7261 15.3705 22.015 15.7806C21.739 16.1225 21.4556 16.4681 21.1783 16.8184C20.9004 17.1695 20.5028 17.233 20.0967 17.3085C19.7067 17.3811 19.3301 17.5299 18.9392 17.5927C18.6477 17.6396 18.3422 17.6137 18.0441 17.599C17.8834 17.5911 17.7257 17.5323 17.5648 17.5107C17.524 17.5052 17.4464 17.5448 17.4359 17.5791C17.3774 17.7701 17.2641 17.9796 17.2991 18.1572C17.4012 18.6741 17.5486 19.1841 17.8071 19.6524C17.9345 19.8831 18.0859 20.0854 18.3493 20.1722C18.392 20.1863 18.4429 20.2173 18.4783 20.2054C18.8044 20.0962 18.912 20.3848 19.0808 20.5418C19.5042 20.9359 19.905 21.3543 20.3311 21.7453C20.7684 22.1466 21.2921 22.3985 21.863 22.5556C22.4106 22.7062 22.9607 22.7192 23.5231 22.6403C24.266 22.5362 25.018 22.4512 25.7518 22.6781C26.1669 22.8064 26.4909 23.0811 26.686 23.4828C26.8889 23.9005 27.0954 24.3146 27.5018 24.6149C27.7387 24.3775 27.9263 24.1044 28.0183 23.7673C28.1724 23.2025 27.8001 22.9123 27.422 22.6337C26.9341 22.2742 26.4631 21.896 26.097 21.4093C25.9323 21.1904 25.8033 20.9423 25.7984 20.6539C25.7927 20.3213 25.4585 20.1164 25.1394 20.2382C24.859 20.3454 24.7648 20.5857 24.6725 20.8333C24.6657 20.8515 24.67 20.8735 24.6658 20.8931C24.6638 20.9026 24.654 20.9104 24.64 20.9296C24.3967 20.6829 24.3012 20.3811 24.3262 20.0534C24.358 19.636 24.6046 19.3768 24.9988 19.261C24.6419 19.2014 24.1676 19.3817 23.8692 19.649C23.5293 19.9535 23.397 20.3227 23.4607 20.7786C23.067 20.6626 22.9023 20.362 22.8632 20.038C22.7735 19.296 22.9688 18.6368 23.6329 18.2075C23.8115 18.092 24.0433 18.0579 24.2518 17.9899C24.3023 17.9735 24.3573 17.9708 24.4075 17.9468C23.7728 17.834 23.0583 17.9788 22.4948 18.8732C22.1415 18.0335 22.7577 16.5091 24.517 16.573C24.2643 16.1036 23.0567 16.1621 22.517 16.6695C22.495 16.6646 22.49 16.6593 22.4851 16.654ZM16.5562 11.1136C16.7884 10.0115 17.191 8.98002 17.8279 8.04539C17.8901 7.95416 17.9463 7.8869 18.0804 7.88691C18.3434 7.88693 18.5303 7.72496 18.5934 7.48366C18.6508 7.26371 18.5586 7.02842 18.3666 6.90494C18.1719 6.77977 17.9265 6.79224 17.7456 6.9365C17.5549 7.08855 17.5035 7.3199 17.5865 7.57289C17.6073 7.6361 17.6056 7.73301 17.5704 7.7844C16.483 9.37246 16.0108 11.1485 16.0122 13.0507C16.0128 13.7512 16.1244 14.4532 16.2107 15.1514C16.2514 15.4805 16.352 15.8022 16.43 16.1475C16.9992 15.9245 17.5387 15.7132 18.0809 15.5008C17.8696 14.8075 17.7525 14.1217 17.7235 13.4218C17.6875 12.5547 17.7781 11.7051 18.0935 10.8892C18.1405 10.7675 18.1759 10.6494 18.3414 10.6075C18.6704 10.5242 18.8237 10.2003 18.7026 9.89937C18.5844 9.60561 18.2463 9.47884 17.9675 9.62377C17.682 9.77218 17.5877 10.1206 17.7752 10.3992C17.8419 10.4984 17.8427 10.569 17.799 10.6725C17.3701 11.6884 17.2882 12.7529 17.3931 13.8354C17.4401 14.3199 17.5371 14.7995 17.614 15.2984C17.3212 15.4126 17.012 15.5331 16.6887 15.6591C16.3266 14.1483 16.247 12.6542 16.5562 11.1136ZM29.5657 22.2646C29.4552 22.3264 29.4259 22.4322 29.5031 22.5146C29.5511 22.5657 29.6792 22.5927 29.7465 22.5666C30.4421 22.2973 31.0558 21.9059 31.4896 21.284C32.2533 20.1893 32.2752 18.9912 31.9427 17.7547C31.9248 17.6884 31.7969 17.6026 31.7285 17.6094C31.5942 17.6226 31.5907 17.7485 31.6116 17.8635C31.6703 18.1862 31.7463 18.5071 31.7818 18.8324C31.8557 19.5098 31.7345 20.1571 31.4065 20.7577C31.003 21.4966 30.3543 21.9434 29.5657 22.2646ZM19.4496 11.7003C19.377 11.455 19.2165 11.3096 18.9593 11.2912C18.7365 11.2752 18.5597 11.3752 18.462 11.5706C18.3499 11.7948 18.3916 12.008 18.5504 12.2092C18.5988 12.2706 18.6135 12.381 18.6025 12.4635C18.5091 13.1619 18.5403 13.8577 18.6316 14.5526C18.6564 14.741 18.6999 14.927 18.736 15.1203C18.8653 15.0872 18.961 15.0628 19.0659 15.036C19.0274 14.7631 18.9662 14.5058 18.9598 14.2472C18.9454 13.6649 18.9553 13.0818 18.9645 12.4992C18.9653 12.4443 19.0187 12.3629 19.0687 12.3404C19.3682 12.2058 19.4679 12.0591 19.4496 11.7003Z" fill="#08745C"/>
<path d="M0.371063 26.6042C0.558321 26.2712 0.835833 26.1562 1.19652 26.1777C1.51152 26.1965 1.82865 26.1868 2.14458 26.1791C2.26871 26.1761 2.33297 26.2073 2.36905 26.3372C2.62725 27.267 2.89145 28.1951 3.15818 29.1224C3.29313 29.5916 3.43732 30.0581 3.5861 30.555C3.67567 30.2505 3.76148 29.9711 3.83988 29.6897C4.04814 28.9422 4.25277 28.1937 4.45973 27.4458C4.56232 27.0751 4.66902 26.7054 4.76895 26.334C4.79295 26.2447 4.81191 26.1786 4.9295 26.1795C5.54069 26.1842 6.15194 26.1817 6.77574 26.1817C6.77574 28.1446 6.77574 30.0977 6.77574 32.0626C6.37068 32.0626 5.96452 32.0626 5.54165 32.0626C5.54165 30.5659 5.54165 29.0713 5.54165 27.5767C5.53159 27.5755 5.52153 27.5742 5.51147 27.573C5.09709 29.071 4.68272 30.569 4.26785 32.0688C3.8053 32.0688 3.34916 32.0688 2.88627 32.0688C2.47231 30.5715 2.05929 29.0776 1.64628 27.5837C1.64056 27.5836 1.63485 27.5834 1.62913 27.5833C1.62913 29.0723 1.62913 30.5614 1.62913 32.0743C1.21072 32.0743 0.809805 32.0743 0.389978 32.0743C0.371063 30.2572 0.371063 28.4402 0.371063 26.6042Z" fill="#08745C"/>
<path d="M33.6871 33.8504C33.6681 33.522 33.6681 33.1935 33.6681 32.8414C33.8307 32.8414 33.9829 32.8435 34.1351 32.8411C34.7458 32.8314 34.9217 32.4541 34.7282 31.9435C34.3106 30.8406 33.887 29.7401 33.4679 28.6378C33.3248 28.2614 33.1881 27.8827 33.0368 27.4736C33.5233 27.4736 33.9774 27.4709 34.4314 27.4783C34.4723 27.4789 34.5353 27.5374 34.5491 27.5813C34.8107 28.4144 35.0666 29.2494 35.3232 30.0841C35.369 30.233 35.4127 30.3826 35.4734 30.5852C35.5808 30.2444 35.6742 29.9492 35.7668 29.6537C35.9596 29.038 36.1439 28.4195 36.3485 27.8077C36.4258 27.5767 36.6396 27.4881 36.8659 27.4774C37.1806 27.4624 37.4965 27.4736 37.8451 27.4736C37.731 27.7859 37.6255 28.0771 37.5184 28.3676C37.0633 29.6023 36.6125 30.8385 36.1497 32.0703C35.9897 32.4961 35.8182 32.9198 35.6169 33.3271C35.46 33.6446 35.1569 33.7828 34.8042 33.8355C34.4341 33.8504 34.0701 33.8504 33.6871 33.8504Z" fill="#08745C"/>
<path d="M51.6289 30.6834C51.5374 31.0162 51.4128 31.3045 51.1749 31.548C50.8331 31.8978 50.404 32.0307 49.948 32.1129C49.7344 32.1514 49.5166 32.1936 49.3014 32.1904C48.7572 32.1822 48.2126 32.1232 47.7977 31.7232C47.5703 31.504 47.4307 31.2163 47.4305 30.8808C47.4303 30.6028 47.3935 30.3096 47.5688 30.0749C47.7144 29.8799 47.8853 29.6828 48.0884 29.5565C48.4124 29.355 48.7933 29.2935 49.1731 29.2461C49.4775 29.2081 49.7798 29.1486 50.0801 29.0846C50.239 29.0507 50.3606 28.9412 50.3724 28.775C50.3845 28.6051 50.2537 28.5191 50.1068 28.4745C49.7443 28.3645 49.3835 28.3476 49.0308 28.5157C49.0072 28.5269 48.9702 28.5316 48.9617 28.5497C48.8542 28.7793 48.6484 28.7234 48.4631 28.7243C48.1677 28.7257 47.8722 28.7247 47.5765 28.7247C47.5978 28.2212 48.0125 27.7313 48.4561 27.5823C49.0557 27.3809 49.6561 27.4143 50.2637 27.4728C50.6411 27.5091 50.9942 27.6076 51.2885 27.8694C51.4503 28.0133 51.5706 28.1726 51.6144 28.3964C51.6289 29.156 51.6289 29.9103 51.6289 30.6834ZM48.9902 30.2146C48.7911 30.3181 48.6747 30.4873 48.6885 30.706C48.7022 30.9207 48.8139 31.1011 49.0403 31.1553C49.1732 31.1871 49.3161 31.1865 49.4543 31.1849C49.8301 31.1806 50.2735 30.9111 50.3375 30.5288C50.3755 30.3012 50.3767 30.0674 50.3952 29.8255C49.9173 29.952 49.4643 30.072 48.9902 30.2146Z" fill="#08745C"/>
<path d="M11.7526 29.8928C11.7323 30.4223 11.655 30.9162 11.3655 31.3548C11.1008 31.7556 10.7165 31.9987 10.2662 32.1036C9.72316 32.2302 9.17331 32.2296 8.62115 32.0847C8.0071 31.9235 7.57113 31.5642 7.37527 30.9747C7.09085 30.1186 7.07593 29.2536 7.47335 28.4164C7.72196 27.8926 8.16405 27.5925 8.7113 27.4887C9.29926 27.3772 9.90148 27.3683 10.48 27.5651C11.0838 27.7704 11.4699 28.206 11.6224 28.816C11.7078 29.1579 11.7119 29.5201 11.7526 29.8928ZM10.2174 28.8761C10.161 28.8032 10.1184 28.7104 10.0461 28.6608C9.5197 28.2996 8.76803 28.4288 8.56808 29.1663C8.45783 29.573 8.467 29.9862 8.56465 30.3964C8.65301 30.7677 8.99082 31.087 9.2946 31.1075C9.9103 31.1491 10.1926 30.8827 10.2905 30.471C10.3645 30.1601 10.3782 29.8283 10.3713 29.5069C10.367 29.3058 10.2748 29.1067 10.2174 28.8761Z" fill="#08745C"/>
<path d="M13.2243 27.6032C13.7411 27.397 14.2711 27.3945 14.7906 27.4409C15.7804 27.5292 16.4444 28.1032 16.594 29.156C16.6843 29.7914 16.6778 30.4217 16.4363 31.0322C16.2548 31.491 15.9357 31.8102 15.4816 31.9927C15.078 32.155 14.6522 32.2151 14.2217 32.1918C13.612 32.1588 13.0417 32.0203 12.6027 31.538C12.2991 31.2045 12.1875 30.8003 12.1205 30.3787C12.0811 30.1303 12.0614 29.8722 12.0812 29.6223C12.1214 29.113 12.1833 28.6072 12.512 28.1757C12.7019 27.9265 12.9349 27.7464 13.2243 27.6032ZM14.9404 30.8847C15.0348 30.7161 15.1604 30.5573 15.2167 30.3768C15.3153 30.0606 15.3151 29.7349 15.2716 29.3988C15.1901 28.7685 14.8986 28.477 14.2715 28.4834C13.9533 28.4866 13.7059 28.6319 13.5734 28.9184C13.3265 29.4526 13.3262 30.0126 13.5279 30.5527C13.7499 31.1474 14.495 31.3202 14.9404 30.8847Z" fill="#08745C"/>
<path d="M28.775 29.1686C28.9026 29.1303 29.0276 29.113 29.1188 29.0482C29.2128 28.9814 29.33 28.8704 29.3335 28.7749C29.3368 28.6838 29.2262 28.5423 29.1319 28.502C28.767 28.3461 28.3894 28.3528 28.0183 28.5023C27.9883 28.5144 27.9422 28.5274 27.9352 28.5498C27.859 28.7946 27.6585 28.7208 27.4925 28.7233C27.1769 28.7281 26.8612 28.7247 26.5446 28.7247C26.643 27.9408 27.1781 27.5759 27.8367 27.4788C28.4423 27.3895 29.0509 27.3868 29.6522 27.5519C30.3021 27.7304 30.6261 28.1 30.6396 28.7868C30.649 29.2638 30.6511 29.7415 30.6386 30.2185C30.627 30.6634 30.544 31.0876 30.2475 31.4507C30.0534 31.6885 29.8149 31.8639 29.5335 31.9451C29.1838 32.0461 28.8159 32.0825 28.458 32.1569C28.1048 32.2303 27.768 32.1514 27.4273 32.0763C26.864 31.9521 26.3778 31.3892 26.3986 30.7954C26.4089 30.5 26.4395 30.2199 26.5971 29.9644C26.8339 29.5805 27.2262 29.4347 27.6279 29.3384C27.9968 29.25 28.3803 29.2228 28.775 29.1686ZM28.9996 29.933C28.6782 30.0146 28.3541 30.0875 28.0362 30.1812C27.839 30.2392 27.6561 30.491 27.655 30.6609C27.6536 30.8883 27.7918 31.1296 28.0239 31.1584C28.2705 31.189 28.5431 31.1733 28.7786 31.0977C29.2916 30.9331 29.4466 30.3862 29.3654 29.8226C29.2529 29.8532 29.1403 29.8838 28.9996 29.933Z" fill="#08745C"/>
<path d="M20.9858 31.0897C20.7195 31.6885 20.2221 31.9477 19.6351 32.0719C19.3659 32.1289 19.0892 32.1904 18.8173 32.1844C18.4922 32.1772 18.163 32.1234 17.846 32.0466C17.5218 31.9679 17.2698 31.7532 17.1001 31.4667C16.7367 30.8533 16.8334 29.7695 17.7722 29.4609C18.1723 29.3294 18.6033 29.2929 19.0192 29.2081C19.2231 29.1665 19.4348 29.1368 19.6228 29.0552C19.7253 29.0107 19.8381 28.8741 19.8484 28.7694C19.8567 28.6844 19.7379 28.5382 19.6431 28.5003C19.2708 28.3513 18.8882 28.34 18.515 28.5185C18.4972 28.527 18.467 28.5266 18.4607 28.5393C18.3322 28.7992 18.094 28.7196 17.886 28.7236C17.611 28.7289 17.3358 28.7249 17.0595 28.7249C17.1445 28.0081 17.6336 27.581 18.3434 27.4784C18.9561 27.3899 19.5746 27.3766 20.178 27.5558C20.8645 27.7597 21.1205 28.0875 21.152 28.7592C21.1755 29.2622 21.1746 29.7682 21.1494 30.271C21.1358 30.5413 21.048 30.8078 20.9858 31.0897ZM19.7987 29.8521C19.7417 29.8665 19.6846 29.8804 19.6278 29.8953C19.2695 29.9894 18.9084 30.0746 18.5538 30.1813C18.3308 30.2484 18.1734 30.4661 18.1702 30.6585C18.1665 30.8834 18.3044 31.1249 18.5373 31.1569C18.7765 31.1898 19.0457 31.1806 19.2711 31.1021C19.7494 30.9355 20.0266 30.3416 19.9 29.8553C19.8966 29.8423 19.8523 29.84 19.7987 29.8521Z" fill="#08745C"/>
<path d="M21.788 28.6762C21.9535 27.9656 22.556 27.5469 23.1861 27.4779C23.53 27.4402 23.8815 27.4122 24.2248 27.4398C25.1808 27.5167 25.7391 27.8764 25.9548 28.8454C25.9905 29.0057 25.9972 29.175 25.9979 29.3401C26.0019 30.2413 25.9998 31.1425 25.9998 32.0493C25.6993 32.0493 25.4 32.0746 25.1069 32.0426C24.7776 32.0068 24.6732 31.7686 24.6702 31.4442C24.6631 30.6843 24.6682 29.9242 24.6678 29.1642C24.6676 28.7521 24.3994 28.4829 23.9885 28.4829C23.834 28.4829 23.6754 28.4646 23.5259 28.4928C23.2142 28.5517 23.0135 28.8233 23.0133 29.1508C23.0128 30.052 23.0131 30.9533 23.0131 31.8545C23.0131 31.9205 23.0131 31.9866 23.0131 32.0636C22.5808 32.0636 22.1612 32.0636 21.7216 32.0636C21.7216 31.9679 21.7216 31.8759 21.7216 31.7839C21.7216 31.0104 21.7171 30.2369 21.7242 29.4635C21.7265 29.2053 21.7586 28.9474 21.788 28.6762Z" fill="#08745C"/>
<path d="M45.6562 32.1168C45.3042 32.1353 44.9696 32.1659 44.6351 32.1654C44.3182 32.1649 44.015 32.0844 43.7273 31.9417C43.1476 31.6541 42.8344 31.1677 42.7157 30.5551C42.6544 30.2385 42.6297 29.9094 42.6343 29.5866C42.6426 29.009 42.7963 28.4648 43.1922 28.0281C43.4773 27.7137 43.8627 27.5278 44.2777 27.4837C44.7037 27.4384 45.1415 27.4401 45.5685 27.4804C46.3547 27.5546 46.8877 28.0525 47.0734 28.8218C47.0807 28.8517 47.0965 28.8796 47.1156 28.9264C46.6614 28.9264 46.2249 28.929 45.7885 28.9229C45.738 28.9222 45.6735 28.8852 45.6403 28.8446C45.1578 28.2565 44.3709 28.3407 44.082 29.0312C43.8579 29.5666 43.8642 30.1386 44.1083 30.6503C44.3977 31.2568 45.148 31.2907 45.619 30.8733C45.7844 30.7266 45.9492 30.6491 46.1714 30.6586C46.4794 30.6719 46.7885 30.662 47.1153 30.662C46.8884 31.4179 46.4564 31.94 45.6562 32.1168Z" fill="#08745C"/>
<path d="M39.4215 32.0444C39.1661 32.0217 38.9241 32.0287 38.6904 31.9878C38.3537 31.929 38.1958 31.6724 38.1941 31.3942C38.1842 29.6741 38.1902 27.954 38.1915 26.2338C38.1915 26.2223 38.2012 26.2107 38.2139 26.1821C38.4595 26.1821 38.716 26.1581 38.9658 26.1887C39.2238 26.2202 39.4782 26.4787 39.48 26.7726C39.4814 26.9996 39.4803 27.2266 39.4803 27.4717C39.7262 27.4717 39.9579 27.4717 40.1866 27.4717C40.2563 28.0417 40.2193 28.2421 39.4804 28.3822C39.4804 29.2054 39.4783 30.031 39.4822 30.8566C39.483 31.012 39.5802 31.0977 39.7341 31.1043C39.8815 31.1105 40.0294 31.1056 40.1919 31.1056C40.1919 31.4084 40.1919 31.7069 40.1919 32.0526C39.9471 32.0526 39.6928 32.0526 39.4215 32.0444Z" fill="#08745C"/>
<path d="M32.6593 27.6346C32.6593 29.119 32.6593 30.5832 32.6593 32.0609C32.2321 32.0609 31.8127 32.0609 31.3805 32.0609C31.3805 30.1128 31.3805 28.161 31.3805 26.1662C31.6783 26.1847 31.9838 26.1803 32.2804 26.2298C32.5089 26.2679 32.6581 26.5111 32.659 26.7476C32.6602 27.0366 32.6593 27.3255 32.6593 27.6346Z" fill="#08745C"/>
<path d="M41.8097 27.5136C42.0667 27.5991 42.1826 27.73 42.1831 27.9517C42.1859 29.3166 42.1845 30.6816 42.1845 32.0605C41.7584 32.0605 41.3387 32.0605 40.9059 32.0605C40.9059 30.5429 40.9059 29.0202 40.9059 27.4577C41.2012 27.4762 41.4969 27.4948 41.8097 27.5136Z" fill="#08745C"/>
<path d="M33.1829 4.38709C33.7167 4.64341 34.1902 4.97185 34.5907 5.38039C35.3533 6.15846 35.9011 7.06649 36.0885 8.15957C36.1497 8.51654 36.191 8.87693 36.2441 9.25569C35.9761 9.25569 35.7445 9.25569 35.498 9.25569C35.474 7.97429 35.0228 6.8574 34.1084 5.9384C33.1919 5.01739 32.0735 4.56919 30.7721 4.53932C30.7721 4.30236 30.7721 4.07093 30.7721 3.8197C31.6142 3.85148 32.4169 4.00458 33.1829 4.38709Z" fill="#08745C"/>
<path d="M33.798 6.51491C34.5297 7.28756 34.8397 8.21121 34.8813 9.25698C34.5763 9.25698 34.2776 9.25698 33.9504 9.25698C33.8992 8.41682 33.6245 7.66044 33.0034 7.04867C32.3875 6.44199 31.6568 6.12722 30.7778 6.11242C30.7778 5.80191 30.7778 5.48464 30.7778 5.1651C31.6832 5.19781 32.5212 5.42687 33.2391 6.0001C33.4328 6.15478 33.6057 6.33555 33.798 6.51491Z" fill="#08745C"/>
<path d="M27.2527 5.13659C27.4594 4.85059 27.3736 4.63387 27.152 4.41868C27.035 4.30501 26.9518 4.15511 26.8604 4.01687C26.7361 3.829 26.6047 3.70433 26.34 3.73015C26.1283 3.7508 25.9715 3.58869 25.9034 3.38C25.8365 3.17511 25.8777 2.9778 26.0189 2.8198C26.1577 2.66463 26.3493 2.61727 26.5501 2.66656C26.9076 2.75432 27.0579 3.0787 26.929 3.43139C26.9047 3.49791 26.914 3.60463 26.9531 3.66172C27.1593 3.96262 27.3774 4.25551 27.5991 4.5453C27.6247 4.57873 27.6989 4.58988 27.7491 4.58674C27.892 4.57781 28.0341 4.55616 28.2021 4.53652C28.2422 4.41562 28.3143 4.26843 28.3328 4.11479C28.3429 4.03067 28.2705 3.93103 28.2213 3.84649C28.1071 3.65006 28.1141 3.42802 28.2506 3.24839C28.3986 3.05361 28.6176 2.97498 28.8319 3.0397C29.1427 3.13359 29.2746 3.35549 29.2279 3.70569C29.1992 3.9213 28.9553 4.09588 28.6449 4.11214C28.5886 4.27361 28.5205 4.43876 28.4774 4.61022C28.4633 4.66636 28.4982 4.75182 28.5383 4.80184C28.816 5.14883 28.7918 5.45918 28.5659 5.78741C28.3986 6.03049 27.946 6.12622 27.6539 5.97549C27.4178 5.85371 27.2592 5.65989 27.2514 5.37566C27.2493 5.30178 27.2514 5.22779 27.2527 5.13659Z" fill="#DEC06C"/>
<path d="M36.1237 10.8876C35.772 11.0628 35.4936 10.9815 35.2929 10.6501C34.8579 10.7201 34.4207 10.7905 33.9949 10.859C33.9383 11.0074 33.8784 11.1523 33.8292 11.3009C33.8158 11.3414 33.8173 11.4074 33.8419 11.4363C33.9289 11.5383 34.0237 11.6355 34.1269 11.7208C34.1623 11.7502 34.2339 11.7537 34.2843 11.7442C34.5548 11.6934 34.8214 11.8114 34.9278 12.0373C35.0244 12.2425 34.9575 12.5493 34.7844 12.695C34.5821 12.8654 34.3187 12.8696 34.0848 12.7062C33.9409 12.6056 33.8267 12.3418 33.8945 12.1802C33.9768 11.9844 33.8922 11.8706 33.7557 11.7592C33.6404 11.665 33.5755 11.5342 33.3646 11.5614C32.8317 11.6302 32.5336 11.3968 32.4846 10.8846C32.4501 10.5249 32.6764 10.1449 33.1182 10.1208C33.5727 10.0961 33.6926 10.172 33.9335 10.5897C34.3295 10.5271 34.7279 10.4684 35.124 10.3966C35.1828 10.386 35.2592 10.3234 35.2782 10.268C35.3618 10.0247 35.6231 9.83682 35.8647 9.87964C36.1616 9.93227 36.3616 10.1492 36.3382 10.4057C36.3211 10.5937 36.3014 10.7632 36.1237 10.8876Z" fill="#DEC06C"/>
<path d="M32.8208 7.61766C33.1183 7.92585 33.4547 8.77724 33.3722 9.25981C33.0215 9.25981 32.6687 9.25981 32.3022 9.25981C32.24 8.87147 32.1343 8.50619 31.8319 8.21293C31.5353 7.92518 31.2031 7.76744 30.777 7.77547C30.777 7.40835 30.777 7.04281 30.777 6.64746C31.6044 6.64822 32.2777 6.97918 32.8208 7.61766Z" fill="#08745C"/>
<path d="M34.888 17.7765C34.2377 16.7716 34.2424 15.3684 35.1075 14.3638C36.0341 15.2076 36.0986 17.137 35.1031 18.0751C35.0341 17.9783 34.9661 17.8829 34.888 17.7765Z" fill="#A4D23B"/>
<path d="M40.8526 26.5364C40.827 25.6594 41.5572 24.5508 42.7226 24.3775C42.9025 25.1939 42.1308 26.5376 40.862 26.6936C40.8589 26.647 40.8558 26.6008 40.8526 26.5364Z" fill="#A4D23B"/>
<path d="M30.1002 16.3635C29.77 16.5305 29.4537 16.6929 29.0822 16.6915C29.1434 15.4705 30.2113 14.6997 31.0362 14.7412C30.9835 15.4261 30.66 15.9545 30.1002 16.3635Z" fill="#A4D23B"/>
<path d="M28.2697 14.2136C28.3823 14.0346 28.4883 13.8698 28.5967 13.701C29.3774 14.4933 29.2695 15.8874 28.5943 16.4809C28.1969 16.0018 28.0429 15.4459 28.104 14.835C28.1245 14.6293 28.2082 14.4299 28.2697 14.2136Z" fill="#A4D23B"/>
<path d="M35.2119 13.4825C35.1284 13.5074 35.0583 13.5231 34.9883 13.5389C34.8382 12.933 35.3927 11.889 36.4169 11.7391C36.5102 12.3649 36.0675 13.2202 35.2119 13.4825Z" fill="#A4D23B"/>
<path d="M29.4745 5.27425C29.6858 5.1848 29.8827 5.09879 30.0852 5.01025C30.2571 5.73574 29.5803 6.74472 28.6657 6.82471C28.6261 6.15091 28.9291 5.65643 29.4745 5.27425Z" fill="#A4D23B"/>
<path d="M41.6227 26.6655C42.014 26.3391 42.8264 26.3398 43.2112 26.6237C43.2385 26.6438 43.2468 26.7479 43.2236 26.7694C42.7577 27.2015 41.9293 27.2966 41.4211 26.845C41.484 26.7859 41.5462 26.7274 41.6227 26.6655Z" fill="#A4D23B"/>
<path d="M29.7627 14.65C29.6729 14.7178 29.5932 14.7752 29.5124 14.8334C29.2238 14.3587 29.5525 13.5218 30.0745 13.3521C30.2623 13.6015 30.1696 14.3493 29.7627 14.65Z" fill="#A4D23B"/>
<path d="M36.0132 13.8721C35.7757 13.8545 35.5661 13.8129 35.4024 13.6476C35.7418 13.2122 36.5418 13.2047 36.8496 13.5367C36.6243 13.7663 36.3546 13.8826 36.0132 13.8721Z" fill="#A4D23B"/>
<path d="M30.0588 6.60761C30.1983 6.65471 30.3209 6.69892 30.441 6.74943C30.5492 6.79499 30.5465 6.86272 30.457 6.92412C30.07 7.18962 29.6623 7.27253 29.2247 7.05042C29.0756 6.97472 29.0719 6.9129 29.2106 6.81542C29.4604 6.63982 29.7404 6.58268 30.0588 6.60761Z" fill="#A4D23B"/>
<path d="M36.13 14.8404C35.9806 14.7157 35.9581 14.5571 36.0628 14.4308C36.1272 14.3531 36.2753 14.3017 36.3781 14.3125C36.4626 14.3213 36.5733 14.4256 36.6044 14.512C36.6443 14.6228 36.6396 14.7642 36.5062 14.848C36.3838 14.9248 36.2647 14.9375 36.13 14.8404Z" fill="#A4D23B"/>
<path d="M32.3134 11.9062C32.5568 11.8116 32.6698 11.8503 32.752 12.0435C32.8094 12.1781 32.7395 12.3577 32.5813 12.3863C32.4824 12.4042 32.3335 12.3659 32.2675 12.2959C32.1628 12.1848 32.1987 12.0352 32.3134 11.9062Z" fill="#DEC06C"/>
<path d="M29.6731 4.03282C29.7191 3.81532 29.8787 3.84117 30.0065 3.87758C30.1187 3.90956 30.1882 4.01675 30.1513 4.1476C30.1124 4.28541 30.0126 4.36499 29.8695 4.34271C29.7114 4.31808 29.6578 4.2017 29.6731 4.03282Z" fill="#DEC06C"/>
<path d="M34.5436 9.822C34.4128 9.92532 34.2776 9.98141 34.1945 9.80974C34.1575 9.73343 34.1665 9.59278 34.2162 9.53013C34.255 9.4811 34.4068 9.47222 34.4762 9.50803C34.5855 9.56454 34.6318 9.68191 34.5436 9.822Z" fill="#A4D23B"/>
<path d="M34.8379 18.3108C34.8271 18.422 34.8437 18.5536 34.788 18.602C34.7345 18.6485 34.5919 18.6367 34.5156 18.5975C34.4646 18.5713 34.4352 18.4504 34.4415 18.3757C34.4552 18.2151 34.6537 18.1784 34.8379 18.3108Z" fill="#A4D23B"/>
<path d="M24.5524 3.4183C24.3688 3.38696 24.3545 3.25126 24.3971 3.14148C24.4238 3.07265 24.5385 3.0071 24.6204 2.99745C24.7589 2.98114 24.8253 3.10853 24.8161 3.21741C24.8057 3.33879 24.7235 3.44043 24.5524 3.4183Z" fill="#A4D23B"/>
<path d="M22.5068 16.6788C22.4941 16.6978 22.4748 16.708 22.4556 16.7183C22.4581 16.6999 22.4606 16.6815 22.4742 16.6587C22.4903 16.6596 22.4952 16.6649 22.5068 16.6788Z" fill="#08745C"/>
<path d="M16.5544 11.1304C16.2472 12.6538 16.3268 14.1479 16.6889 15.6587C17.0122 15.5327 17.3214 15.4122 17.6142 15.298C17.5373 14.7991 17.4403 14.3194 17.3933 13.835C17.2883 12.7525 17.3703 11.688 17.7992 10.6721C17.8429 10.5686 17.8421 10.498 17.7754 10.3988C17.5878 10.1202 17.6822 9.77177 17.9677 9.62336C18.2465 9.47844 18.5846 9.60521 18.7028 9.89897C18.8239 10.1999 18.6706 10.5238 18.3416 10.6071C18.1761 10.649 18.1407 10.7671 18.0937 10.8888C17.7783 11.7047 17.6877 12.5543 17.7236 13.4214C17.7527 14.1213 17.8698 14.807 18.081 15.5004C17.5388 15.7128 16.9994 15.9241 16.4302 16.1471C16.3522 15.8018 16.2516 15.4801 16.2109 15.151C16.1246 14.4528 16.0129 13.7508 16.0124 13.0503C16.011 11.1481 16.4832 9.37206 17.5706 7.784C17.6058 7.7326 17.6075 7.63569 17.5867 7.57248C17.5037 7.31949 17.5551 7.08815 17.7458 6.9361C17.9267 6.79183 18.1721 6.77936 18.3668 6.90453C18.5588 7.02802 18.651 7.2633 18.5935 7.48326C18.5305 7.72456 18.3436 7.88653 18.0805 7.88651C17.9464 7.88649 17.8902 7.95376 17.8281 8.04499C17.1912 8.97961 16.7886 10.011 16.5544 11.1304Z" fill="#9FCF3C"/>
<path d="M29.5796 22.2576C30.3543 21.943 31.003 21.4963 31.4065 20.7573C31.7345 20.1568 31.8558 19.5095 31.7818 18.832C31.7463 18.5067 31.6703 18.1859 31.6116 17.8632C31.5907 17.7481 31.5942 17.6222 31.7285 17.609C31.797 17.6023 31.9248 17.688 31.9427 17.7543C32.2752 18.9909 32.2533 20.1889 31.4896 21.2836C31.0558 21.9055 30.4421 22.2969 29.7465 22.5663C29.6792 22.5924 29.5511 22.5653 29.5031 22.5142C29.4259 22.4319 29.4552 22.3261 29.5796 22.2576Z" fill="#9FCF3C"/>
<path d="M19.4527 11.7163C19.4679 12.0589 19.3683 12.2056 19.0688 12.3402C19.0188 12.3626 18.9654 12.444 18.9645 12.499C18.9554 13.0816 18.9455 13.6646 18.9599 14.247C18.9663 14.5056 19.0275 14.7629 19.066 15.0357C18.9611 15.0625 18.8654 15.087 18.7361 15.12C18.7 14.9267 18.6565 14.7407 18.6317 14.5523C18.5403 13.8575 18.5092 13.1616 18.6026 12.4632C18.6136 12.3808 18.5989 12.2703 18.5505 12.2089C18.3917 12.0077 18.35 11.7945 18.4621 11.5704C18.5597 11.3749 18.7365 11.2749 18.9594 11.2909C19.2166 11.3094 19.3771 11.4547 19.4527 11.7163Z" fill="#D8BE6C"/>
</svg>
