<svg width="138" height="30" viewBox="0 0 138 30" fill="none" xmlns="http://www.w3.org/2000/svg">
<path d="M137.818 18.5095L138 18.6308C136.757 20.7833 134.877 22.8752 131.482 22.8752C126.934 22.8752 124.57 19.1765 124.57 14.8412C124.57 10.0208 127.723 6.26147 132.21 6.26147C135.908 6.26147 138.152 8.74747 137.97 12.628H128.875V12.9312C128.875 17.6303 130.239 20.7227 133.513 20.7227C135.302 20.7227 136.848 19.8738 137.818 18.5095ZM132.088 6.68591C129.966 6.68591 129.026 9.35381 128.905 12.143H134.21C134.453 8.8081 133.998 6.68591 132.088 6.68591Z" fill="#1D1D1D"/>
<path d="M122.046 6.3219V18.5093C122.046 20.4496 122.561 21.2985 123.592 21.6623V21.8442L118.56 22.875H118.438L117.832 19.9645C116.316 21.4804 114.376 22.875 112.314 22.875C109.677 22.875 108.343 21.1772 108.343 18.1455V9.95994C108.343 8.01965 107.767 7.29204 106.736 6.92824V6.74634L112.466 6.3219H112.587V17.0541C112.587 19.146 112.981 20.5709 114.922 20.5709C115.77 20.5709 116.892 20.2374 117.802 19.6614V9.95994C117.802 8.01965 117.226 7.29204 116.195 6.92824V6.74634L121.925 6.3219H122.046Z" fill="#1D1D1D"/>
<path d="M95.8275 18.8733H101.406C104.741 18.8733 106.56 20.3286 106.56 22.9964C106.56 27.0892 101.739 29.7874 97.2524 29.7874C93.3415 29.7874 91.5528 27.9987 91.5528 26.1191C91.5528 24.2698 93.099 23.3602 94.7967 22.8752L95.3121 22.7236H95.4334C94.9483 23.3906 94.7664 24.0272 94.7664 24.8458C94.7664 27.0892 96.5248 28.6051 99.5262 28.6051C102.133 28.6051 104.104 27.2408 104.104 24.967C104.104 23.3906 102.891 22.3901 100.769 22.3901H94.8877C92.9474 22.3901 92.0985 21.329 92.0985 19.9344C92.0985 18.5095 93.2809 17.5697 95.1908 16.5086C93.1596 15.7204 91.9469 14.0226 91.9469 11.6882C91.9469 8.4443 94.4329 6.26147 98.1619 6.26147C99.4958 6.26147 100.648 6.53433 101.618 6.98908L106.56 6.35243L106.014 8.20176L102.861 7.89859C103.801 8.8081 104.316 10.0814 104.316 11.5973C104.316 14.8715 101.861 17.024 98.1316 17.024C97.1918 17.024 96.3126 16.9027 95.5546 16.6602C94.7967 17.1756 94.5542 17.5091 94.5542 17.9941C94.5542 18.4792 94.8877 18.8733 95.8275 18.8733ZM98.1316 6.68591C96.2822 6.68591 95.6456 8.86873 95.6456 11.6276C95.6456 14.3864 96.2519 16.5996 98.1316 16.5996C100.011 16.5996 100.587 14.3864 100.587 11.6276C100.587 8.86873 100.011 6.68591 98.1316 6.68591Z" fill="#1D1D1D"/>
<path d="M82.7669 22.8752C78.1587 22.8752 75.127 19.7222 75.127 14.629C75.127 9.59634 78.28 6.26147 82.8275 6.26147C87.4357 6.26147 90.4674 9.41444 90.4674 14.5077C90.4674 19.5403 87.3144 22.8752 82.7669 22.8752ZM82.8275 22.4507C85.1922 22.4507 85.9805 18.9037 85.9805 14.5683C85.9805 10.4149 85.1316 6.68591 82.7669 6.68591C80.4021 6.68591 79.6139 10.233 79.6139 14.5683C79.6139 18.7218 80.4628 22.4507 82.8275 22.4507Z" fill="#1D1D1D"/>
<path d="M73.2802 22.5113H58.4249V22.3294C60.4864 22.3294 60.6077 20.8136 60.6077 18.5701V4.38176C60.6077 2.1383 60.4864 0.622453 58.4249 0.622453V0.440552H67.2774V0.622453C65.2159 0.622453 65.0946 2.1383 65.0946 4.38176V20.7529C65.0946 21.5412 65.3675 22.0262 66.186 22.0262H67.1258C69.8544 22.0262 71.7643 20.571 73.9775 15.9932H74.1594L73.2802 22.5113Z" fill="#1D1D1D"/>
<path d="M50.111 22.8752C45.5028 22.8752 42.4711 19.7222 42.4711 14.629C42.4711 9.59634 45.6241 6.26147 50.1716 6.26147C54.7798 6.26147 57.8115 9.41444 57.8115 14.5077C57.8115 19.5403 54.6585 22.8752 50.111 22.8752ZM50.1716 22.4507C52.5363 22.4507 53.3246 18.9037 53.3246 14.5683C53.3246 10.4149 52.4757 6.68591 50.111 6.68591C47.7463 6.68591 46.958 10.233 46.958 14.5683C46.958 18.7218 47.8069 22.4507 50.1716 22.4507Z" fill="#1D1D1D"/>
<path d="M33.4426 22.8752C28.8344 22.8752 25.8027 19.7222 25.8027 14.629C25.8027 9.59634 28.9557 6.26147 33.5032 6.26147C38.1114 6.26147 41.1431 9.41444 41.1431 14.5077C41.1431 19.5403 37.9901 22.8752 33.4426 22.8752ZM33.5032 22.4507C35.8679 22.4507 36.6562 18.9037 36.6562 14.5683C36.6562 10.4149 35.8073 6.68591 33.4426 6.68591C31.0779 6.68591 30.2896 10.233 30.2896 14.5683C30.2896 18.7218 31.1385 22.4507 33.5032 22.4507Z" fill="#1D1D1D"/>
<path d="M22.5254 4.38176L23.3136 18.5701C23.4349 20.8136 23.5562 22.3294 25.6177 22.3294V22.5113H16.8561V22.3294C18.9177 22.3294 19.0389 20.8136 18.9177 18.5701L18.0688 3.0175L11.3687 22.5113H11.1262L3.85013 3.0175L3.15284 16.2054C2.94062 19.7828 3.81982 22.2688 5.88137 22.3294V22.5113H-0.00012207V22.3294C1.94016 22.1778 2.42524 19.7525 2.60714 16.2054L3.24379 3.95732C3.36506 1.7745 2.27365 0.86499 0.818436 0.622453V0.440552H7.63976L13.1878 15.5081L18.372 0.440552H24.7082V0.622453C22.6467 0.804356 22.4041 2.1383 22.5254 4.38176Z" fill="#1D1D1D"/>
</svg>
