<svg width="18" height="14" viewBox="0 0 18 14" fill="none" xmlns="http://www.w3.org/2000/svg">
<path d="M1.875 10H3.375L7.56563 13.725C7.76562 13.9031 8.02187 14 8.2875 14C8.8875 14 9.375 13.5125 9.375 12.9125V1.0875C9.375 0.4875 8.8875 0 8.2875 0C8.02187 0 7.76562 0.096875 7.56563 0.275L3.375 4H1.875C1.04688 4 0.375 4.67188 0.375 5.5V8.5C0.375 9.32812 1.04688 10 1.875 10ZM11.8438 4.46875C11.55 4.7625 11.55 5.2375 11.8438 5.52812L13.3125 6.99687L11.8438 8.46562C11.55 8.75937 11.55 9.23438 11.8438 9.525C12.1375 9.81562 12.6125 9.81875 12.9031 9.525L14.3719 8.05625L15.8406 9.525C16.1344 9.81875 16.6094 9.81875 16.9 9.525C17.1906 9.23125 17.1938 8.75625 16.9 8.46562L15.4312 6.99687L16.9 5.52812C17.1938 5.23438 17.1938 4.75938 16.9 4.46875C16.6062 4.17812 16.1312 4.175 15.8406 4.46875L14.3719 5.9375L12.9031 4.46875C12.6094 4.175 12.1344 4.175 11.8438 4.46875Z" fill="#367A23"/>
</svg>
