<svg width="13" height="14" viewBox="0 0 13 14" fill="none" xmlns="http://www.w3.org/2000/svg">
<path d="M12.2188 0.15004C11.8156 -0.0687099 11.3219 -0.0468349 10.9375 0.20629L2.875 5.50317V1.00004C2.875 0.446915 2.42813 4.01184e-05 1.875 4.01184e-05C1.32187 4.01184e-05 0.875 0.446915 0.875 1.00004V13C0.875 13.5532 1.32187 14 1.875 14C2.42813 14 2.875 13.5532 2.875 13V8.49691L10.9375 13.7969C11.3219 14.05 11.8125 14.0719 12.2188 13.8532C12.625 13.6344 12.875 13.2125 12.875 12.7532V1.25317C12.875 0.79379 12.6219 0.371915 12.2188 0.153165V0.15004Z" fill="#367A23"/>
</svg>
