<svg width="13" height="14" viewBox="0 0 13 14" fill="none" xmlns="http://www.w3.org/2000/svg">
<path d="M0.78125 0.15004C1.18438 -0.0687099 1.67813 -0.0468349 2.0625 0.20629L10.125 5.50317V1.00004C10.125 0.446915 10.5719 4.01184e-05 11.125 4.01184e-05C11.6781 4.01184e-05 12.125 0.446915 12.125 1.00004V13C12.125 13.5532 11.6781 14 11.125 14C10.5719 14 10.125 13.5532 10.125 13V8.49691L2.0625 13.7969C1.67813 14.05 1.1875 14.0719 0.78125 13.8532C0.375 13.6344 0.125 13.2094 0.125 12.75V1.25004C0.125 0.790665 0.378125 0.36879 0.78125 0.15004Z" fill="#367A23"/>
</svg>
