<svg width="17" height="16" viewBox="0 0 17 16" fill="none" xmlns="http://www.w3.org/2000/svg">
<g clip-path="url(#clip0_1_4178)">
<path d="M1.375 5.99968H5.875C6.17812 5.99968 6.45312 5.81843 6.56875 5.53718C6.68437 5.25593 6.62187 4.93405 6.40625 4.71843L4.94688 3.25906C7.3 1.42781 10.7062 1.59343 12.8687 3.75593C15.2125 6.09968 15.2125 9.89655 12.8687 12.2403C10.525 14.5841 6.72813 14.5841 4.38438 12.2403C4.06563 11.9216 3.79063 11.5747 3.55938 11.2091C3.2625 10.7434 2.64375 10.6059 2.17813 10.9028C1.7125 11.1997 1.575 11.8184 1.87188 12.2841C2.17813 12.7716 2.54375 13.2341 2.96875 13.6559C6.09375 16.7809 11.1562 16.7809 14.2812 13.6559C17.4062 10.5309 17.4062 5.46843 14.2812 2.34343C11.3375 -0.603445 6.66562 -0.772195 3.52187 1.83718L1.90625 0.21843C1.69062 0.00592993 1.36875 -0.0596951 1.0875 0.0559299C0.80625 0.171555 0.625 0.446555 0.625 0.74968V5.24968C0.625 5.66531 0.959375 5.99968 1.375 5.99968Z" fill="#367A23"/>
</g>
<defs>
<clipPath id="clip0_1_4178">
<rect width="16" height="16" fill="white" transform="translate(0.625)"/>
</clipPath>
</defs>
</svg>
