<svg width="16" height="16" viewBox="0 0 16 16" fill="none" xmlns="http://www.w3.org/2000/svg">
<g clip-path="url(#clip0_1_3684)">
<path d="M10.1813 4.75938C10.2219 4.90313 10.3532 5 10.5 5C10.6469 5 10.7782 4.90313 10.8188 4.75938L11.25 3.25L12.7594 2.81875C12.9032 2.77812 13 2.64687 13 2.5C13 2.35313 12.9032 2.22188 12.7594 2.18125L11.25 1.75L10.8188 0.240625C10.7782 0.096875 10.65 0 10.5 0C10.35 0 10.2219 0.096875 10.1813 0.240625L9.75003 1.75L8.24065 2.18125C8.0969 2.22188 8.00003 2.35313 8.00003 2.5C8.00003 2.64687 8.0969 2.77812 8.24065 2.81875L9.75003 3.25L10.1813 4.75938ZM6.66878 4.91875C6.39378 4.35938 5.5969 4.35938 5.3219 4.91875L3.87503 7.85625L0.640654 8.32812C0.0281536 8.41562 -0.218721 9.17188 0.228154 9.60625L2.56878 11.8938L2.01565 15.1219C1.9094 15.7344 2.55315 16.2031 3.10315 15.9125L5.9969 14.3875L8.89065 15.9125C9.44065 16.2031 10.0844 15.7344 9.97815 15.1219L9.42503 11.8938L11.7657 9.60625C12.2094 9.17188 11.9657 8.41562 11.35 8.32812L8.11565 7.85625L6.66878 4.91875ZM13.4 7.6L13.7438 8.80625C13.775 8.91875 13.8813 9 14 9C14.1188 9 14.2219 8.92188 14.2563 8.80625L14.6 7.6L15.8063 7.25625C15.9188 7.225 16 7.11875 16 7C16 6.88125 15.9219 6.77813 15.8063 6.74375L14.6 6.4L14.2563 5.19375C14.225 5.08125 14.1188 5 14 5C13.8813 5 13.7782 5.07812 13.7438 5.19375L13.4 6.4L12.1938 6.74375C12.0813 6.775 12 6.88125 12 7C12 7.11875 12.0782 7.22187 12.1938 7.25625L13.4 7.6Z" fill="#367A23"/>
</g>
<defs>
<clipPath id="clip0_1_3684">
<rect width="16" height="16" fill="white"/>
</clipPath>
</defs>
</svg>
