<svg width="26" height="26" viewBox="0 0 26 26" fill="none" xmlns="http://www.w3.org/2000/svg">
<path d="M16.4086 7.61778C16.472 7.84238 16.6771 7.99373 16.9066 7.99373C17.1361 7.99373 17.3412 7.84238 17.4046 7.61778L18.0785 5.2595L20.4368 4.58571C20.6614 4.52224 20.8128 4.31717 20.8128 4.08769C20.8128 3.85821 20.6614 3.65314 20.4368 3.58967L18.0785 2.91587L17.4046 0.557598C17.3412 0.333 17.141 0.181641 16.9066 0.181641C16.6722 0.181641 16.472 0.333 16.4086 0.557598L15.7347 2.91587L13.3764 3.58967C13.1518 3.65314 13.0004 3.85821 13.0004 4.08769C13.0004 4.31717 13.1518 4.52224 13.3764 4.58571L15.7347 5.2595L16.4086 7.61778ZM10.9204 7.86679C10.4907 6.99281 9.24558 6.99281 8.8159 7.86679L6.55518 12.4564L1.50154 13.1937C0.54452 13.3304 0.158783 14.512 0.857016 15.1906L4.51419 18.7647L3.64995 23.8083C3.48393 24.7653 4.48978 25.4977 5.34914 25.0436L9.87057 22.6609L14.392 25.0436C15.2514 25.4977 16.2572 24.7653 16.0912 23.8083L15.2269 18.7647L18.8841 15.1906C19.5775 14.512 19.1966 13.3304 18.2347 13.1937L13.1811 12.4564L10.9204 7.86679ZM21.4378 12.056L21.9749 13.9407C22.0237 14.1165 22.1897 14.2434 22.3753 14.2434C22.5608 14.2434 22.722 14.1213 22.7757 13.9407L23.3128 12.056L25.1975 11.5189C25.3733 11.4701 25.5002 11.3041 25.5002 11.1186C25.5002 10.933 25.3782 10.7719 25.1975 10.7182L23.3128 10.1811L22.7757 8.29645C22.7268 8.12068 22.5608 7.99373 22.3753 7.99373C22.1897 7.99373 22.0286 8.1158 21.9749 8.29645L21.4378 10.1811L19.5531 10.7182C19.3773 10.767 19.2503 10.933 19.2503 11.1186C19.2503 11.3041 19.3724 11.4652 19.5531 11.5189L21.4378 12.056Z" fill="#FFFEFA"/>
</svg>
