<svg width="26" height="27" viewBox="0 0 26 27" fill="none" xmlns="http://www.w3.org/2000/svg">
<path d="M10.2312 18.9392C10.1409 18.7239 9.91901 18.5986 9.69121 18.6264C9.46342 18.6542 9.27822 18.8294 9.24246 19.06L8.85969 21.4826L6.60047 22.4375C6.38522 22.5278 6.25985 22.7497 6.28769 22.9775C6.31553 23.2052 6.49065 23.3904 6.7213 23.4262L9.14398 23.8089L10.0989 26.068C10.1891 26.2833 10.4062 26.4092 10.6389 26.3808C10.8715 26.3524 11.0519 26.1779 11.0876 25.9472L11.4704 23.5246L13.7296 22.5697C13.9449 22.4795 14.0702 22.2576 14.0424 22.0298C14.0146 21.802 13.8394 21.6168 13.6088 21.581L11.1861 21.1983L10.2312 18.9392ZM15.6487 18.0263C16.1812 18.8417 17.4171 18.6906 17.7376 17.771L19.4248 12.941L24.3517 11.5962C25.2851 11.3444 25.5247 10.1247 24.7493 9.53576L20.6855 6.43175L20.9316 1.32048C20.9803 0.350427 19.893 -0.254535 19.0951 0.300437L14.8961 3.21401L10.119 1.39739C9.21091 1.05091 8.30133 1.8999 8.58221 2.82968L10.0519 7.73127L6.85528 11.7225C6.24938 12.4803 6.77075 13.607 7.74213 13.626L12.8479 13.7448L15.6487 18.0263ZM4.70071 15.1438L3.93895 13.3382C3.86916 13.1696 3.68897 13.0638 3.5048 13.0863C3.32062 13.1088 3.17549 13.2495 3.14409 13.4353L2.83958 15.3712L1.03391 16.133C0.865349 16.2028 0.759473 16.3829 0.78198 16.5671C0.804486 16.7513 0.945199 16.8964 1.13104 16.9278L3.06701 17.2323L3.82877 19.0379C3.89856 19.2064 4.07875 19.3123 4.26292 19.2898C4.4471 19.2673 4.59223 19.1266 4.62363 18.9407L4.92814 17.0048L6.73381 16.2431C6.90237 16.1733 7.00825 15.9931 6.98574 15.809C6.96323 15.6248 6.82252 15.4797 6.63668 15.4483L4.70071 15.1438Z" fill="#FFFEFA"/>
</svg>
