<svg width="18" height="17" viewBox="0 0 18 17" fill="none" xmlns="http://www.w3.org/2000/svg">
<path d="M2.49072 7.58125C2.68447 7.45312 2.9501 7.475 3.11885 7.64687L4.55947 9.0875L4.7501 9.29688C5.36572 10.0406 5.57197 11.0156 5.35322 11.9187C6.34385 11.6781 7.42197 11.95 8.18447 12.7094L9.6251 14.15C9.81885 14.3438 9.81885 14.6625 9.6251 14.8562L9.39385 15.0875C8.22197 16.2594 6.32197 16.2594 5.1501 15.0875L4.19072 14.1344L1.54385 16.7812C1.2501 17.075 0.778223 17.075 0.484473 16.7812C0.190723 16.4875 0.190723 16.0125 0.484473 15.7219L3.13135 13.075L2.17822 12.1219C1.00635 10.95 1.00635 9.05 2.17822 7.87813L2.40947 7.64687L2.4876 7.58125H2.49072ZM5.74072 4.33125C5.93447 4.20312 6.2001 4.225 6.36885 4.39687L7.80947 5.8375L8.0001 6.04688C8.61572 6.79063 8.82197 7.76562 8.60322 8.66875C9.59385 8.42812 10.672 8.7 11.4345 9.45938L12.8751 10.9C13.0688 11.0938 13.0688 11.4125 12.8751 11.6062L12.6438 11.8375C11.472 13.0094 9.57197 13.0094 8.4001 11.8375L5.43447 8.87187C4.2626 7.7 4.2626 5.8 5.43447 4.62813L5.66572 4.39687L5.74385 4.33125H5.74072ZM8.99072 1.08125C9.18447 0.953125 9.4501 0.975 9.61885 1.14688L11.0595 2.5875L11.2501 2.79688C11.8657 3.54063 12.072 4.51562 11.8532 5.41875C12.8438 5.17812 13.922 5.45 14.6845 6.20937L16.1251 7.65C16.3188 7.84375 16.3188 8.1625 16.1251 8.35625L15.8938 8.5875C14.722 9.75937 12.822 9.75937 11.6501 8.5875L8.68447 5.62187C7.5126 4.45 7.5126 2.55 8.68447 1.38125L8.91572 1.15L8.99385 1.08438L8.99072 1.08125ZM17.1126 -0.240625C17.2095 -0.221875 17.297 -0.175 17.3688 -0.103125C17.4626 -0.00937501 17.5157 0.11875 17.5157 0.25V1.34375L17.5126 1.49375C17.4376 2.98125 16.247 4.17188 14.7595 4.24687L14.6095 4.25H13.5157C13.3845 4.25 13.2563 4.19688 13.1626 4.10313C13.0688 4.00938 13.0157 3.88125 13.0157 3.75V2.65625C13.0157 1.05 14.3157 -0.25 15.922 -0.25H17.0157L17.1126 -0.240625Z" fill="#FFFEFA"/>
</svg>
