<svg width="25" height="26" viewBox="0 0 25 26" fill="none" xmlns="http://www.w3.org/2000/svg">
<rect x="0.5" y="1.25" width="24" height="24" rx="12" fill="#B0740C"/>
<rect x="0.5" y="1.25" width="24" height="24" rx="12" stroke="#8D5C09"/>
<path d="M9.16783 10.9192C9.2145 9.98583 9.54117 9.26716 10.1478 8.76316C10.7638 8.24983 11.5712 7.99316 12.5698 7.99316C13.2512 7.99316 13.8345 8.1145 14.3198 8.35716C14.8052 8.5905 15.1692 8.9125 15.4118 9.32316C15.6638 9.7245 15.7898 10.1818 15.7898 10.6952C15.7898 11.2832 15.6358 11.7825 15.3278 12.1932C15.0292 12.5945 14.6698 12.8652 14.2498 13.0052V13.0612C14.7912 13.2292 15.2112 13.5278 15.5098 13.9572C15.8178 14.3865 15.9718 14.9372 15.9718 15.6092C15.9718 16.1692 15.8412 16.6685 15.5798 17.1072C15.3278 17.5458 14.9498 17.8912 14.4458 18.1432C13.9512 18.3858 13.3538 18.5072 12.6538 18.5072C11.5992 18.5072 10.7405 18.2412 10.0778 17.7092C9.41517 17.1772 9.06517 16.3932 9.02783 15.3572H10.9318C10.9505 15.8145 11.1045 16.1832 11.3938 16.4632C11.6925 16.7338 12.0985 16.8692 12.6118 16.8692C13.0878 16.8692 13.4518 16.7385 13.7038 16.4772C13.9652 16.2065 14.0958 15.8612 14.0958 15.4412C14.0958 14.8812 13.9185 14.4798 13.5638 14.2372C13.2092 13.9945 12.6585 13.8732 11.9118 13.8732H11.5058V12.2632H11.9118C13.2372 12.2632 13.8998 11.8198 13.8998 10.9332C13.8998 10.5318 13.7785 10.2192 13.5358 9.99516C13.3025 9.77116 12.9618 9.65916 12.5138 9.65916C12.0752 9.65916 11.7345 9.7805 11.4918 10.0232C11.2585 10.2565 11.1232 10.5552 11.0858 10.9192H9.16783Z" fill="#211500"/>
</svg>
