<svg width="25" height="26" viewBox="0 0 25 26" fill="none" xmlns="http://www.w3.org/2000/svg">
<rect x="0.5" y="0.75" width="24" height="24" rx="12" fill="#E8E8E8"/>
<rect x="0.5" y="0.75" width="24" height="24" rx="12" stroke="#D1D1D1"/>
<path d="M9.77716 15.8235C10.6732 15.0768 11.3872 14.4561 11.9192 13.9615C12.4512 13.4575 12.8945 12.9348 13.2492 12.3935C13.6038 11.8521 13.7812 11.3201 13.7812 10.7975C13.7812 10.3215 13.6692 9.94814 13.4452 9.67747C13.2212 9.4068 12.8758 9.27147 12.4092 9.27147C11.9425 9.27147 11.5832 9.43014 11.3312 9.74747C11.0792 10.0555 10.9485 10.4801 10.9392 11.0215H9.03516C9.07249 9.90147 9.40382 9.05214 10.0292 8.47347C10.6638 7.8948 11.4665 7.60547 12.4372 7.60547C13.5012 7.60547 14.3178 7.89014 14.8872 8.45947C15.4565 9.01947 15.7412 9.76147 15.7412 10.6855C15.7412 11.4135 15.5452 12.1088 15.1532 12.7715C14.7612 13.4341 14.3132 14.0128 13.8092 14.5075C13.3052 14.9928 12.6472 15.5808 11.8352 16.2715H15.9652V17.8955H9.04916V16.4395L9.77716 15.8235Z" fill="#686868"/>
</svg>
