<svg width="18" height="17" viewBox="0 0 18 17" fill="none" xmlns="http://www.w3.org/2000/svg">
<path d="M2.49063 7.83125C2.68438 7.70312 2.95001 7.725 3.11876 7.89687L4.55938 9.3375L4.75001 9.54688C5.36563 10.2906 5.57188 11.2656 5.35313 12.1687C6.34376 11.9281 7.42188 12.2 8.18438 12.9594L9.62501 14.4C9.81876 14.5938 9.81876 14.9125 9.62501 15.1062L9.39376 15.3375C8.22188 16.5094 6.32188 16.5094 5.15001 15.3375L4.19063 14.3844L1.54376 17.0312C1.25001 17.325 0.778131 17.325 0.484381 17.0312C0.190631 16.7375 0.190631 16.2625 0.484381 15.9719L3.13126 13.325L2.17813 12.3719C1.00626 11.2 1.00626 9.3 2.17813 8.12813L2.40938 7.89687L2.48751 7.83125H2.49063ZM5.74063 4.58125C5.93438 4.45312 6.20001 4.475 6.36876 4.64687L7.80938 6.0875L8.00001 6.29688C8.61563 7.04063 8.82188 8.01562 8.60313 8.91875C9.59376 8.67812 10.6719 8.95 11.4344 9.70938L12.875 11.15C13.0688 11.3438 13.0688 11.6625 12.875 11.8562L12.6438 12.0875C11.4719 13.2594 9.57188 13.2594 8.40001 12.0875L5.43438 9.12187C4.26251 7.95 4.26251 6.05 5.43438 4.87813L5.66563 4.64687L5.74376 4.58125H5.74063ZM8.99063 1.33125C9.18438 1.20312 9.45001 1.225 9.61876 1.39688L11.0594 2.8375L11.25 3.04688C11.8656 3.79063 12.0719 4.76562 11.8531 5.66875C12.8438 5.42812 13.9219 5.7 14.6844 6.45937L16.125 7.9C16.3188 8.09375 16.3188 8.4125 16.125 8.60625L15.8938 8.8375C14.7219 10.0094 12.8219 10.0094 11.65 8.8375L8.68438 5.87187C7.51251 4.7 7.51251 2.8 8.68438 1.63125L8.91563 1.4L8.99376 1.33438L8.99063 1.33125ZM17.1125 0.00937501C17.2094 0.028125 17.2969 0.075 17.3688 0.146875C17.4625 0.240625 17.5156 0.36875 17.5156 0.5V1.59375L17.5125 1.74375C17.4375 3.23125 16.2469 4.42188 14.7594 4.49687L14.6094 4.5H13.5156C13.3844 4.5 13.2563 4.44688 13.1625 4.35313C13.0688 4.25938 13.0156 4.13125 13.0156 4V2.90625C13.0156 1.3 14.3156 0 15.9219 0H17.0156L17.1125 0.00937501Z" fill="#FFFEFA"/>
</svg>
