<svg width="21" height="20" viewBox="0 0 21 20" fill="none" xmlns="http://www.w3.org/2000/svg">
<g clip-path="url(#clip0_5540_308)">
<path d="M10.5 1.25C12.8206 1.25 15.0462 2.17187 16.6872 3.81282C18.3281 5.45376 19.25 7.67936 19.25 10C19.25 12.3206 18.3281 14.5462 16.6872 16.1872C15.0462 17.8281 12.8206 18.75 10.5 18.75C8.17936 18.75 5.95376 17.8281 4.31282 16.1872C2.67187 14.5462 1.75 12.3206 1.75 10C1.75 7.67936 2.67187 5.45376 4.31282 3.81282C5.95376 2.17187 8.17936 1.25 10.5 1.25ZM10.5 20C13.1522 20 15.6957 18.9464 17.5711 17.0711C19.4464 15.1957 20.5 12.6522 20.5 10C20.5 7.34784 19.4464 4.8043 17.5711 2.92893C15.6957 1.05357 13.1522 0 10.5 0C7.84784 0 5.3043 1.05357 3.42893 2.92893C1.55357 4.8043 0.5 7.34784 0.5 10C0.5 12.6522 1.55357 15.1957 3.42893 17.0711C5.3043 18.9464 7.84784 20 10.5 20ZM8.625 13.75C8.28125 13.75 8 14.0312 8 14.375C8 14.7188 8.28125 15 8.625 15H12.375C12.7188 15 13 14.7188 13 14.375C13 14.0312 12.7188 13.75 12.375 13.75H11.125V9.375C11.125 9.03125 10.8438 8.75 10.5 8.75H8.625C8.28125 8.75 8 9.03125 8 9.375C8 9.71875 8.28125 10 8.625 10H9.875V13.75H8.625ZM10.5 7.1875C10.7486 7.1875 10.9871 7.08873 11.1629 6.91291C11.3387 6.7371 11.4375 6.49864 11.4375 6.25C11.4375 6.00136 11.3387 5.7629 11.1629 5.58709C10.9871 5.41127 10.7486 5.3125 10.5 5.3125C10.2514 5.3125 10.0129 5.41127 9.83709 5.58709C9.66127 5.7629 9.5625 6.00136 9.5625 6.25C9.5625 6.49864 9.66127 6.7371 9.83709 6.91291C10.0129 7.08873 10.2514 7.1875 10.5 7.1875Z" fill="#808080"/>
</g>
<defs>
<clipPath id="clip0_5540_308">
<rect width="20" height="20" fill="white" transform="translate(0.5)"/>
</clipPath>
</defs>
</svg>
