<svg width="21" height="20" viewBox="0 0 21 20" fill="none" xmlns="http://www.w3.org/2000/svg">
<path d="M10.5 20C13.1522 20 15.6957 18.9464 17.5711 17.0711C19.4464 15.1957 20.5 12.6522 20.5 10C20.5 7.34784 19.4464 4.8043 17.5711 2.92893C15.6957 1.05357 13.1522 0 10.5 0C7.84784 0 5.3043 1.05357 3.42893 2.92893C1.55357 4.8043 0.5 7.34784 0.5 10C0.5 12.6522 1.55357 15.1957 3.42893 17.0711C5.3043 18.9464 7.84784 20 10.5 20ZM9.25 6.25C9.25 5.91848 9.3817 5.60054 9.61612 5.36612C9.85054 5.1317 10.1685 5 10.5 5C10.8315 5 11.1495 5.1317 11.3839 5.36612C11.6183 5.60054 11.75 5.91848 11.75 6.25C11.75 6.58152 11.6183 6.89946 11.3839 7.13388C11.1495 7.3683 10.8315 7.5 10.5 7.5C10.1685 7.5 9.85054 7.3683 9.61612 7.13388C9.3817 6.89946 9.25 6.58152 9.25 6.25ZM8.9375 8.75H10.8125C11.332 8.75 11.75 9.16797 11.75 9.6875V13.125H12.0625C12.582 13.125 13 13.543 13 14.0625C13 14.582 12.582 15 12.0625 15H8.9375C8.41797 15 8 14.582 8 14.0625C8 13.543 8.41797 13.125 8.9375 13.125H9.875V10.625H8.9375C8.41797 10.625 8 10.207 8 9.6875C8 9.16797 8.41797 8.75 8.9375 8.75Z" fill="#367A23"/>
</svg>
