<svg width="21" height="20" viewBox="0 0 21 20" fill="none" xmlns="http://www.w3.org/2000/svg">
<path d="M10.2853 1.39062L3.547 4.08594C3.3556 4.16406 3.21497 4.32812 3.1681 4.52734L1.92591 10H2.39466C2.73841 10 3.01966 10.2812 3.01966 10.625V17.5C3.01966 18.1914 3.57825 18.75 4.26966 18.75H6.14466V12.5C6.14466 11.8086 6.70325 11.25 7.39466 11.25H13.6447C14.3361 11.25 14.8947 11.8086 14.8947 12.5V18.75H16.7697C17.4611 18.75 18.0197 18.1914 18.0197 17.5V10.625C18.0197 10.2812 18.3009 10 18.6447 10H19.1134L17.8712 4.52734C17.8243 4.32812 17.6837 4.16016 17.4923 4.08594L10.754 1.39062C10.6056 1.33203 10.4376 1.33203 10.2892 1.39062H10.2853ZM7.39466 18.75H12.7618L7.39466 13.3828V18.75ZM7.39466 20H4.26966C2.89075 20 1.76966 18.8789 1.76966 17.5V11.25H1.53529C0.933723 11.25 0.48841 10.6914 0.621223 10.1055L1.95325 4.25C2.08997 3.64844 2.51185 3.15234 3.08607 2.92578L9.82435 0.230469C10.2697 0.0507812 10.7697 0.0507812 11.2189 0.230469L17.9572 2.92578C18.5275 3.15625 18.9533 3.64844 19.09 4.25L20.422 10.1016C20.5548 10.6875 20.1095 11.2461 19.5079 11.2461H19.2736V17.4961C19.2736 18.875 18.1525 19.9961 16.7736 19.9961H7.39857L7.39466 20ZM9.58216 4.375H11.4572C12.3204 4.375 13.0197 5.07422 13.0197 5.9375V7.8125C13.0197 8.67578 12.3204 9.375 11.4572 9.375H9.58216C8.71888 9.375 8.01966 8.67578 8.01966 7.8125V5.9375C8.01966 5.07422 8.71888 4.375 9.58216 4.375ZM9.26966 5.9375V7.8125C9.26966 7.98438 9.41028 8.125 9.58216 8.125H11.4572C11.629 8.125 11.7697 7.98438 11.7697 7.8125V5.9375C11.7697 5.76562 11.629 5.625 11.4572 5.625H9.58216C9.41028 5.625 9.26966 5.76562 9.26966 5.9375ZM13.6447 17.8672V12.5H8.27747L13.6447 17.8672Z" fill="#808080"/>
</svg>
