<svg width="21" height="20" viewBox="0 0 21 20" fill="none" xmlns="http://www.w3.org/2000/svg">
<path d="M0.539062 9.85938L2.125 4.03906C2.28125 3.46484 2.70312 2.99609 3.26172 2.78125L9.82812 0.257812C10.2617 0.0898438 10.7422 0.0898438 11.1758 0.257812L17.7383 2.78516C18.2969 3 18.7188 3.46484 18.875 4.04297L20.4609 9.85938C20.4883 9.95312 20.5 10.0508 20.5 10.1484C20.5 10.7578 20.0078 11.25 19.3984 11.25H19.25V17.5C19.25 18.8789 18.1289 20 16.75 20H4.25C2.87109 20 1.75 18.8789 1.75 17.5V11.25H1.60156C0.992188 11.25 0.5 10.7578 0.5 10.1484C0.5 10.0508 0.511719 9.95312 0.539062 9.85938ZM8.625 5.3125V7.1875C8.625 7.70703 9.04297 8.125 9.5625 8.125H11.4375C11.957 8.125 12.375 7.70703 12.375 7.1875V5.3125C12.375 4.79297 11.957 4.375 11.4375 4.375H9.5625C9.04297 4.375 8.625 4.79297 8.625 5.3125ZM6.75 16.875C6.75 17.5664 7.30859 18.125 8 18.125H12.8633L6.75 12.5234V16.875ZM8.13672 11.25L14.25 16.8516V12.5C14.25 11.8086 13.6914 11.25 13 11.25H8.13672Z" fill="#367A23"/>
</svg>
