<svg width="25" height="16" viewBox="0 0 25 16" fill="none" xmlns="http://www.w3.org/2000/svg">
<path d="M5 3.625V13.9375C5 14.1094 5.14062 14.25 5.3125 14.25H6.5625C6.73438 14.25 6.875 14.1094 6.875 13.9375V11.125C6.875 9.05469 8.55469 7.375 10.625 7.375C12.6953 7.375 14.375 9.05469 14.375 11.125V13.9375C14.375 14.1094 14.5156 14.25 14.6875 14.25H15.9375C16.1094 14.25 16.25 14.1094 16.25 13.9375V7.375C16.25 7.16016 16.3633 6.95703 16.5469 6.84375C16.7305 6.73047 16.9609 6.71875 17.1562 6.81641L19.6562 8.06641C19.8672 8.17188 20 8.38672 20 8.625V11.0742C20 11.1914 20.0352 11.3086 20.0977 11.4102L21.5547 13.6992C21.7734 14.043 22.1523 14.25 22.5586 14.25C23.2148 14.25 23.75 13.7188 23.75 13.0586V9.64062C23.75 9.51172 23.7109 9.39062 23.6406 9.28516L23.2344 8.70312C23.1602 8.59766 23.125 8.47266 23.125 8.34766V5.8125C23.125 5.64062 22.9844 5.5 22.8125 5.5C22.6562 5.5 22.5273 5.61328 22.5039 5.76172C22.4609 6.01172 22.2734 6.21484 22.0234 6.26953C21.7734 6.32422 21.5195 6.22656 21.3711 6.01562L19.3516 3.09766C18.7695 2.25391 17.8125 1.75 16.7852 1.75H15.6133C15.5391 2.80078 15.0898 3.79297 14.3438 4.53906L14.2227 4.66016C13.2852 5.59766 12.0117 6.125 10.6875 6.125H10.5625C9.23828 6.125 7.96484 5.59766 7.02734 4.66016L6.90625 4.53906C6.25781 3.89062 5.83594 3.0625 5.6875 2.17578C5.26953 2.51953 5 3.04297 5 3.625ZM7.78906 3.65625L7.91016 3.77734C8.61328 4.48047 9.56641 4.875 10.5625 4.875H10.6875C11.6836 4.875 12.6367 4.48047 13.3398 3.77734L13.4609 3.65625C13.9766 3.14063 14.293 2.46875 14.3633 1.75H6.89062C6.96094 2.46875 7.27734 3.14063 7.79297 3.65625H7.78906ZM8.125 12.6797V13.9375C8.125 14.8008 7.42578 15.5 6.5625 15.5H5.3125C4.44922 15.5 3.75 14.8008 3.75 13.9375V3.625C3.75 2.92188 3.98438 2.27344 4.375 1.75C3.33984 1.75 2.5 2.58984 2.5 3.625V8.5C2.5 9.60547 1.60547 10.5 0.5 10.5C0.222656 10.5 0 10.2773 0 10V9.25C0 8.32422 0.503906 7.51562 1.25 7.08594V3.625C1.25 1.89844 2.64844 0.5 4.375 0.5H16.7852C18.2227 0.5 19.5664 1.20312 20.3828 2.38281L21.8867 4.55469C22.1445 4.36328 22.4688 4.25 22.8125 4.25C23.6758 4.25 24.375 4.94922 24.375 5.8125V8.15234L24.668 8.57422C24.8867 8.88672 25 9.26172 25 9.64062V13.0586C25 14.4062 23.9062 15.5 22.5586 15.5C21.7227 15.5 20.9492 15.0742 20.5 14.3711L19.043 12.082C18.8516 11.7812 18.75 11.4336 18.75 11.0742V9.01172L17.5 8.38672V13.9375C17.5 14.8008 16.8008 15.5 15.9375 15.5H14.6875C13.8242 15.5 13.125 14.8008 13.125 13.9375V12.6797C12.8672 12.7578 12.5547 12.8281 12.1875 12.8867V13.3125C12.1875 13.6562 11.9062 13.9375 11.5625 13.9375C11.2188 13.9375 10.9375 13.6562 10.9375 13.3125V12.9961C10.7383 13 10.5117 13 10.3125 12.9961V13.3125C10.3125 13.6562 10.0312 13.9375 9.6875 13.9375C9.34375 13.9375 9.0625 13.6562 9.0625 13.3125V12.8867C8.69531 12.8281 8.38281 12.7578 8.125 12.6797ZM8.125 11.3594C8.20703 11.3906 8.30859 11.4297 8.42578 11.4648C8.87109 11.6016 9.58984 11.75 10.625 11.75C11.6602 11.75 12.3789 11.6016 12.8242 11.4648C12.9414 11.4297 13.043 11.3906 13.125 11.3594V11.125C13.125 9.74609 12.0039 8.625 10.625 8.625C9.24609 8.625 8.125 9.74609 8.125 11.125V11.3594ZM21.5625 10.5C21.5625 10.3342 21.6283 10.1753 21.7456 10.0581C21.8628 9.94085 22.0217 9.875 22.1875 9.875C22.3533 9.875 22.5122 9.94085 22.6294 10.0581C22.7467 10.1753 22.8125 10.3342 22.8125 10.5C22.8125 10.6658 22.7467 10.8247 22.6294 10.9419C22.5122 11.0592 22.3533 11.125 22.1875 11.125C22.0217 11.125 21.8628 11.0592 21.7456 10.9419C21.6283 10.8247 21.5625 10.6658 21.5625 10.5Z" fill="#808080"/>
</svg>
