<svg width="21" height="20" viewBox="0 0 21 20" fill="none" xmlns="http://www.w3.org/2000/svg">
<path d="M14.875 0H6.125C5.08984 0 4.24609 0.851563 4.28516 1.88281C4.29297 2.08984 4.30078 2.29688 4.3125 2.5H1.4375C0.917969 2.5 0.5 2.91797 0.5 3.4375C0.5 7.87891 2.37109 10.3789 4.57031 11.7109C5.41406 12.2227 6.28906 12.5508 7.08984 12.7578C7.84766 13.7852 8.62891 14.3438 9.25 14.6445V17.5H6.75C6.05859 17.5 5.5 18.0586 5.5 18.75C5.5 19.4414 6.05859 20 6.75 20H14.25C14.9414 20 15.5 19.4414 15.5 18.75C15.5 18.0586 14.9414 17.5 14.25 17.5H11.75V14.6445C12.3984 14.332 13.2227 13.7383 14.0117 12.6211C14.6992 12.418 15.4219 12.1367 16.125 11.7422C17.2695 11.1016 18.375 10.1562 19.1914 8.78516C20.0078 7.41016 20.5 5.65625 20.5 3.44141C20.5 2.92188 20.082 2.50391 19.5625 2.50391H16.6875C16.6992 2.30078 16.707 2.09766 16.7148 1.88672C16.7539 0.851562 15.9102 0.00390625 14.875 0.00390625V0ZM2.40625 4.375H4.45312C4.70703 6.85938 5.16797 8.76172 5.73438 10.2188C5.66797 10.1836 5.60547 10.1445 5.53906 10.1055C4.05859 9.21094 2.63672 7.56641 2.40625 4.375ZM17.5742 7.82812C16.9844 8.82422 16.1914 9.53125 15.332 10.0352C15.8633 8.60156 16.3008 6.75781 16.543 4.37891H18.5859C18.4727 5.83984 18.0898 6.96094 17.5742 7.83203V7.82812ZM10.9219 3.35156L11.6055 4.73438L13.1289 4.95703C13.5117 5.01172 13.668 5.48438 13.3867 5.75781L12.2852 6.83203L12.5469 8.35156C12.6133 8.73438 12.2109 9.02734 11.8672 8.84766L10.5 8.125L9.13672 8.84375C8.79297 9.02344 8.39062 8.73438 8.45703 8.34766L8.71875 6.82812L7.61719 5.75391C7.33984 5.48438 7.49219 5.01172 7.87891 4.95312L9.40234 4.73047L10.0859 3.34766C10.2578 3 10.7539 3 10.9258 3.34766L10.9219 3.35156Z" fill="#367A23"/>
</svg>
