<svg width="25" height="16" viewBox="0 0 25 16" fill="none" xmlns="http://www.w3.org/2000/svg">
<path d="M3.75 6.75V14.25C3.75 14.9414 4.30859 15.5 5 15.5H6.25C6.94141 15.5 7.5 14.9414 7.5 14.25V10.8047C7.88672 11.0625 8.30469 11.2734 8.75 11.4336V12.3789C8.75 12.7227 9.03125 13.0039 9.375 13.0039C9.71875 13.0039 10 12.7227 10 12.3789V11.7188C10.207 11.7422 10.4141 11.7539 10.625 11.7539C10.8359 11.7539 11.043 11.7422 11.25 11.7188V12.3789C11.25 12.7227 11.5312 13.0039 11.875 13.0039C12.2188 13.0039 12.5 12.7227 12.5 12.3789V11.4336C12.9453 11.2773 13.3633 11.0664 13.75 10.8047V14.25C13.75 14.9414 14.3086 15.5 15 15.5H16.25C16.9414 15.5 17.5 14.9414 17.5 14.25V8L18.75 9.25V11.1836C18.75 11.5547 18.8594 11.9141 19.0664 12.2227L20.7031 14.6797C21.0469 15.1914 21.6211 15.5 22.2383 15.5C23.1172 15.5 23.875 14.8789 24.0469 14.0156L24.8398 10.0469C24.9414 9.53906 24.8281 9.01172 24.5273 8.58984L24.375 8.375V5.1875C24.375 4.66797 23.957 4.25 23.4375 4.25C22.918 4.25 22.5 4.66797 22.5 5.1875V5.75L20.4336 2.85547C19.375 1.37891 17.6719 0.5 15.8555 0.5H5.625C3.03516 0.5 0.9375 2.59766 0.9375 5.1875V7.29688C0.367188 7.75781 0 8.46094 0 9.25V9.9375C0 10.25 0.25 10.5 0.5625 10.5C1.80469 10.5 2.8125 9.49219 2.8125 8.25V5.1875C2.8125 4.23828 3.28516 3.39844 4.00391 2.88672C3.83984 3.30859 3.75 3.76953 3.75 4.25V6.75ZM21.875 11.125C21.875 10.9592 21.9408 10.8003 22.0581 10.6831C22.1753 10.5658 22.3342 10.5 22.5 10.5C22.6658 10.5 22.8247 10.5658 22.9419 10.6831C23.0592 10.8003 23.125 10.9592 23.125 11.125C23.125 11.2908 23.0592 11.4497 22.9419 11.5669C22.8247 11.6842 22.6658 11.75 22.5 11.75C22.3342 11.75 22.1753 11.6842 22.0581 11.5669C21.9408 11.4497 21.875 11.2908 21.875 11.125ZM6.50781 4.50781C6.34375 4.34375 6.25 4.11719 6.25 3.88281C6.25 3.39453 6.64453 3 7.13281 3H14.1133C14.6016 3 14.9961 3.39453 14.9961 3.88281C14.9961 4.11719 14.9023 4.34375 14.7383 4.50781L13.8242 5.42188C12.9766 6.27344 11.8242 6.75 10.625 6.75C9.42578 6.75 8.27344 6.27344 7.42578 5.42578L6.51172 4.51172L6.50781 4.50781Z" fill="#367A23"/>
</svg>
