<svg width="21" height="20" viewBox="0 0 21 20" fill="none" xmlns="http://www.w3.org/2000/svg">
<path d="M14.8828 1.25H6.13282C5.78126 1.25 5.53126 1.53516 5.54298 1.83594C5.78517 8.23828 7.29689 11.1797 8.51564 12.5195C9.12111 13.1875 9.68361 13.4883 10.0508 13.625C10.2383 13.6953 10.3828 13.7266 10.4649 13.7422C10.4844 13.7461 10.5 13.7461 10.5117 13.75C10.5234 13.75 10.5391 13.7461 10.5586 13.7422C10.6406 13.7305 10.7852 13.6992 10.9727 13.625C11.3399 13.4883 11.9024 13.1836 12.5078 12.5195C13.7266 11.1836 15.2344 8.23828 15.4805 1.83594C15.4922 1.53125 15.2383 1.25 14.8906 1.25H14.8828ZM6.13282 0H14.8828C15.918 0 16.7617 0.851563 16.7227 1.88281C16.7149 2.08984 16.707 2.29688 16.6953 2.5H18.6328C19.6485 2.5 20.5547 3.33984 20.4453 4.4375C20.2031 6.86328 19.293 8.59375 18.0781 9.8125C16.9766 10.9141 15.6602 11.5664 14.4492 11.9492C13.2617 13.9883 11.9024 14.6641 11.1289 14.8906V18.7539H14.8789C15.2227 18.7539 15.5039 19.0352 15.5039 19.3789C15.5039 19.7227 15.2227 20.0039 14.8789 20.0039H6.12892C5.78517 20.0039 5.50392 19.7227 5.50392 19.3789C5.50392 19.0352 5.78517 18.7539 6.12892 18.7539H9.87892V14.8906C9.12501 14.6719 7.80861 14.0195 6.64064 12.0859C5.45704 11.7461 4.1172 11.1328 2.98439 10.0156C1.7422 8.78906 0.796887 7.00391 0.558606 4.43359C0.457044 3.33984 1.35548 2.5 2.37501 2.5H4.31251C4.30079 2.29688 4.29298 2.09375 4.28517 1.88281C4.24611 0.847656 5.08986 0 6.12501 0L6.13282 0ZM15.2422 10.293C15.9297 9.96094 16.6055 9.51953 17.1914 8.92578C18.1875 7.92578 18.9844 6.46875 19.1992 4.3125C19.2266 4.03516 18.9961 3.75 18.6328 3.75H16.6094C16.3711 6.58594 15.8672 8.70703 15.2422 10.293ZM4.40626 3.75H2.38282C2.01954 3.75 1.78517 4.03516 1.81251 4.31641C2.02736 6.61719 2.85548 8.12109 3.87111 9.125C4.47267 9.71875 5.15626 10.1523 5.84376 10.4609C5.18751 8.85547 4.65626 6.6875 4.41017 3.75H4.40626ZM11.3516 3.73047L11.8438 4.73047L12.9453 4.89062C13.7149 5.00391 14.0195 5.94922 13.4649 6.48828L12.668 7.26562L12.8555 8.36328C12.9883 9.12891 12.1836 9.71484 11.4961 9.35156L10.5117 8.83203L9.52736 9.35156C8.83986 9.71484 8.03517 9.12891 8.16798 8.36328L8.35548 7.26562L7.55861 6.48828C7.00392 5.94531 7.30861 5 8.07814 4.89062L9.1797 4.73047L9.67189 3.73047C10.0156 3.03516 11.0078 3.03516 11.3516 3.73047ZM10.2266 5.42969C10.0899 5.70703 9.82423 5.89844 9.51954 5.94141L8.88282 6.03516L9.34376 6.48438C9.56642 6.69922 9.66407 7.01172 9.61329 7.3125L9.50392 7.94922L10.0742 7.64844C10.3477 7.50391 10.6719 7.50391 10.9453 7.64844L11.5156 7.94922L11.4063 7.3125C11.3555 7.00781 11.4531 6.69922 11.6758 6.48438L12.1367 6.03516L11.5 5.94141C11.1953 5.89844 10.9297 5.70703 10.793 5.42969L10.5078 4.85156L10.2227 5.42969H10.2266Z" fill="#808080"/>
</svg>
